<?xml version="1.0" standalone="no"?>
<!DOCTYPE svg PUBLIC "-//W3C//DTD SVG 1.1//EN" "http://www.w3.org/Graphics/SVG/1.1/DTD/svg11.dtd" >
<svg>
<metadata>
Created by FontForge 20120731 at Sun May 27 11:06:16 2018
 By www
Copyright (c) 1998 Adobe Systems Incorporated.  All Rights Reserved.Bell is a registered trademark of The Monotype Corporation registered in the US Pat &#38; TM Off.
</metadata>
<defs>
<font id="BellMT-Regular" horiz-adv-x="500" >
  <font-face 
    font-family="Bell MT"
    font-weight="500"
    font-stretch="normal"
    units-per-em="1000"
    panose-1="0 0 0 0 0 0 0 0 0 0"
    ascent="800"
    descent="-200"
    x-height="410"
    cap-height="644"
    bbox="-207 -266 1059 879"
    underline-thickness="50"
    underline-position="-75"
    stemh="20"
    stemv="69"
    unicode-range="U+0020-FB02"
  />
<missing-glyph horiz-adv-x="250" 
 />
    <glyph glyph-name=".notdef" horiz-adv-x="250" 
 />
    <glyph glyph-name="space" unicode=" " horiz-adv-x="250" 
 />
    <glyph glyph-name="exclam" unicode="!" horiz-adv-x="219" 
d="M109 648c47 0 49 -55 49 -68c0 -19 -40 -333 -40 -396c0 -27 0 -30 -10 -30c-9 0 -13 0 -13 8c0 86 -12 211 -21 298c-2 19 -12 120 -12 127c0 36 21 61 47 61zM110 86c26 0 48 -21 48 -48s-22 -48 -48 -48c-27 0 -48 21 -48 48s21 48 48 48z" />
    <glyph glyph-name="quotedbl" unicode="&#x22;" horiz-adv-x="406" 
d="M280 369l-26 145c-10 54 -11 60 -11 80c0 13 0 60 47 60c21 0 51 -12 51 -53c0 -17 -2 -28 -13 -88l-27 -144h-21zM102 369l-26 145c-10 54 -11 60 -11 80c0 13 0 60 47 60c21 0 51 -12 51 -53c0 -17 -2 -28 -13 -88l-27 -144h-21z" />
    <glyph glyph-name="numbersign" unicode="#" horiz-adv-x="667" 
d="M46 464h164l43 203h42l-43 -203h223l42 203h43l-43 -203h104v-43h-113l-41 -199h154v-43h-163l-41 -202h-44l43 202h-224l-41 -202h-43l42 202h-104v43h113l42 199h-155v43zM466 421h-223l-42 -198h224z" />
    <glyph glyph-name="dollar" unicode="$" 
d="M230 592h28v-59c158 -13 166 -98 166 -108c0 -15 -9 -48 -40 -48c-15 0 -34 10 -34 37c0 9 1 12 15 36c5 7 5 10 5 13c0 8 -15 44 -112 52v-207c123 -33 190 -72 190 -164c0 -52 -25 -108 -81 -139c-40 -22 -85 -25 -109 -27v-121h-28v121c-28 1 -72 4 -115 29
c-44 26 -69 71 -69 113c0 25 18 49 41 49c27 0 43 -25 43 -45c0 -21 -20 -36 -23 -38c-12 -7 -14 -8 -14 -16c0 -6 21 -66 137 -74v239c-83 26 -168 53 -168 153c0 57 38 137 168 145v59zM230 317v198c-24 -2 -129 -13 -129 -97c0 -57 58 -81 129 -101zM258 228v-232
c124 6 139 86 139 110c0 75 -79 101 -139 122z" />
    <glyph glyph-name="percent" unicode="%" horiz-adv-x="740" 
d="M556 316c64 0 143 -57 143 -164c0 -115 -83 -166 -144 -166c-69 0 -145 62 -145 162c0 90 61 168 146 168zM560 298c-90 0 -90 -132 -90 -156c0 -106 48 -138 82 -138c61 0 87 77 87 156c0 110 -53 138 -79 138zM186 652c64 0 144 -57 144 -164
c0 -115 -84 -166 -145 -166c-69 0 -144 62 -144 162c0 90 61 168 145 168zM191 634c-90 0 -90 -132 -90 -156c0 -106 48 -138 83 -138c61 0 86 77 86 156c0 110 -52 138 -79 138zM557 650h32l-400 -662h-30z" />
    <glyph glyph-name="ampersand" unicode="&#x26;" horiz-adv-x="688" 
d="M538 402l122 1c4 -1 8 -5 8 -9c0 -9 -10 -9 -18 -9c-61 -2 -92 -66 -106 -96c-39 -85 -43 -94 -71 -130c41 -77 66 -123 116 -123c20 0 39 10 51 18c3 2 14 11 17 11s10 -4 10 -9c0 -8 -66 -65 -133 -65c-52 0 -73 36 -114 106c-40 -37 -115 -106 -211 -106
c-82 0 -163 55 -163 149c0 107 103 172 169 214c-47 48 -88 95 -88 154c0 82 71 125 130 125c52 0 117 -37 117 -105c0 -63 -58 -112 -87 -137c106 -89 146 -159 174 -211c16 24 63 98 63 152c0 38 -28 54 -58 54c-9 0 -23 0 -23 9c0 4 3 10 10 10c13 0 73 -3 85 -3z
M270 407c25 21 63 55 63 114c0 48 -38 88 -82 88c-48 0 -68 -43 -68 -74c0 -55 55 -101 87 -128zM231 339c-79 -54 -107 -96 -107 -159c0 -84 63 -143 130 -143c72 0 127 53 155 80c-54 98 -79 129 -178 222z" />
    <glyph glyph-name="quoteright" unicode="&#x2019;" horiz-adv-x="208" 
d="M92 648c30 0 58 -22 58 -58c0 -75 -109 -133 -115 -133c-9 0 -9 7 -9 9c0 4 4 8 13 15c36 30 58 48 58 70c0 12 -11 18 -23 24c-7 3 -25 12 -25 35c0 18 15 38 43 38z" />
    <glyph glyph-name="parenleft" unicode="(" horiz-adv-x="302" 
d="M49 203c0 22 0 196 119 380c12 20 53 83 70 83c0 0 23 -1 23 -9c0 -3 -32 -46 -38 -55c-76 -126 -126 -267 -126 -414c0 -207 105 -383 150 -430c5 -5 10 -10 10 -14c0 -9 -23 -9 -30 -9s-11 0 -30 23c-52 62 -148 224 -148 445z" />
    <glyph glyph-name="parenright" unicode=")" horiz-adv-x="302" 
d="M253 198c0 -22 0 -196 -119 -380c-13 -20 -53 -83 -70 -83c0 0 -23 1 -23 9c0 3 32 46 38 55c82 122 126 267 126 414c0 207 -105 383 -150 430c-5 5 -10 10 -10 14c0 9 23 9 30 9s11 0 30 -23c52 -62 148 -224 148 -445z" />
    <glyph glyph-name="asterisk" unicode="*" 
d="M244 669c26 0 29 -28 29 -41c0 -23 -14 -129 -14 -140c0 -4 2 -6 4 -6s4 1 14 17c36 55 78 112 107 112c8 0 23 -7 23 -22c0 -16 0 -18 -84 -78c-16 -12 -35 -25 -41 -29c-2 -1 -6 -4 -6 -8c0 -1 1 -5 7 -5c2 0 29 6 35 7c19 3 81 13 97 13c9 0 44 -2 44 -29
c0 -11 -8 -24 -29 -24c-23 0 -142 21 -148 21c-4 0 -6 -3 -6 -4s25 -20 29 -22c25 -18 77 -56 90 -70c7 -8 15 -19 15 -30c0 -13 -13 -22 -26 -22c-24 0 -40 22 -107 116c-7 11 -8 12 -10 12c-1 0 -3 0 -3 -5c0 -9 13 -125 13 -148c0 -8 0 -33 -25 -33c-28 0 -28 31 -28 36
c0 33 12 88 19 122c0 3 5 23 5 23c0 2 -3 5 -5 5c-1 0 -45 -61 -54 -72c-19 -25 -49 -63 -66 -63c-11 0 -23 10 -23 24c0 15 2 19 48 57c26 22 43 34 75 56c1 1 5 3 5 6c0 2 -3 3 -4 3c-2 0 -9 -2 -11 -2c-82 -14 -116 -20 -134 -20c-20 0 -38 10 -38 28c0 11 8 27 36 27
c22 0 55 -6 136 -19c3 0 9 -2 11 -2c3 0 5 2 5 4s-18 15 -19 16c-116 83 -123 88 -123 107c0 14 13 24 25 24c20 0 50 -37 97 -95c4 -5 30 -36 33 -36c1 0 3 1 3 5c0 5 -8 35 -9 41c-13 61 -17 78 -17 103c0 33 18 40 25 40z" />
    <glyph glyph-name="plus" unicode="+" horiz-adv-x="667" 
d="M71 311h241v241h43v-241h241v-43h-241v-241h-43v241h-241v43z" />
    <glyph glyph-name="comma" unicode="," horiz-adv-x="219" 
d="M101 90c34 0 69 -34 69 -74c0 -53 -35 -109 -70 -140c-21 -17 -48 -32 -53 -32c-4 0 -8 6 -8 10c0 5 21 17 24 20c11 9 54 49 54 100c0 17 -9 19 -19 20c-51 4 -51 42 -51 46c0 11 8 50 54 50z" />
    <glyph glyph-name="hyphen" unicode="-" horiz-adv-x="344" 
d="M42 237h270c15 0 15 -2 15 -20v-27c0 -18 -2 -18 -22 -18h-263c-23 0 -25 0 -25 18v27c0 20 2 20 25 20z" />
    <glyph glyph-name="period" unicode="." horiz-adv-x="219" 
d="M110 90c26 0 48 -21 48 -48s-22 -48 -48 -48c-28 0 -48 22 -48 48s21 48 48 48z" />
    <glyph glyph-name="slash" unicode="/" 
d="M401 660h42l-344 -678h-42z" />
    <glyph glyph-name="zero" unicode="0" 
d="M254 531c123 0 218 -130 218 -267c0 -130 -88 -273 -226 -273c-141 0 -218 147 -218 267c0 135 93 273 226 273zM253 511c-100 0 -143 -125 -143 -253c0 -148 59 -247 140 -247c137 0 140 185 140 259c0 44 -2 241 -137 241z" />
    <glyph glyph-name="one" unicode="1" 
d="M308 518v-63c0 -139 -3 -175 -3 -223c0 -186 3 -187 20 -199c13 -11 22 -12 46 -14c4 0 11 -1 11 -8c0 -8 -6 -12 -15 -12c-10 0 -55 2 -64 2c-21 0 -117 -2 -137 -2c-7 0 -16 2 -16 9c0 9 10 10 17 11c70 4 74 25 74 111c0 129 -1 253 -5 290c-6 52 -49 52 -79 52
c-12 0 -15 9 -15 12c0 7 9 8 17 8c48 0 103 17 128 33c7 4 11 7 14 7c4 0 7 -3 7 -14z" />
    <glyph glyph-name="two" unicode="2" 
d="M129 1l-70 -1c-8 0 -12 5 -12 9s15 16 24 23c148 115 181 153 209 189c36 46 73 116 73 180c0 8 0 105 -85 105c-96 0 -163 -105 -163 -190c0 -26 10 -61 47 -61c24 0 60 14 83 76c1 3 4 12 11 12c4 0 9 -4 9 -9c0 -24 -48 -106 -115 -106c-45 0 -87 41 -87 90
c0 90 128 212 241 212c61 0 139 -35 139 -130c0 -89 -65 -153 -129 -206c-25 -21 -138 -109 -160 -125v-2h148c91 0 100 9 129 48c12 18 14 18 17 18c5 0 8 -5 8 -8c0 -4 -50 -114 -55 -124c-24 -2 -31 -2 -48 -2c-34 0 -184 2 -214 2z" />
    <glyph glyph-name="three" unicode="3" 
d="M297 297l2 -2c128 1 136 -105 136 -118c0 -86 -98 -187 -226 -187c-99 0 -158 56 -158 101c0 22 17 51 49 51c18 0 34 -15 34 -34c0 -4 -8 -24 -9 -25c-2 -5 -3 -10 -3 -17c0 -38 42 -57 83 -57c129 0 153 186 153 194c0 65 -51 77 -68 77c-20 0 -26 -4 -78 -45
c-1 -1 -11 -9 -15 -9c-3 0 -8 4 -8 10c0 4 1 5 14 15c107 82 145 110 145 178c0 43 -28 81 -76 81c-64 0 -120 -59 -120 -122c0 -26 11 -50 39 -50c25 0 39 22 48 36c8 13 9 15 14 15c6 0 9 -5 9 -9c0 -5 -33 -75 -93 -75c-52 0 -70 41 -70 69c0 72 79 156 194 156
c101 0 127 -59 127 -95c0 -44 -32 -74 -50 -88c-12 -8 -63 -44 -73 -50z" />
    <glyph glyph-name="four" unicode="4" 
d="M387 0h-185c-17 0 -27 0 -27 10c0 9 3 10 36 10c8 1 38 1 46 34c7 27 9 115 10 147c-53 0 -109 0 -240 -4c-1 8 -1 10 0 18c132 157 148 174 191 221c48 52 76 81 93 97h22c2 -34 2 -77 2 -114c0 -49 -1 -153 0 -196c54 1 111 1 116 70c2 24 2 27 10 27c9 0 9 -9 9 -12
c0 -12 -3 -66 -3 -77c0 -17 2 -91 2 -106c0 -7 -6 -10 -10 -10c-7 0 -7 3 -13 27c-16 63 -43 62 -111 59c-1 -28 -2 -130 3 -150c8 -31 43 -31 58 -31c6 0 18 -1 18 -10c0 -10 -9 -10 -27 -10zM267 223c3 54 4 208 4 238c-19 -22 -30 -33 -121 -132
c-42 -46 -73 -85 -91 -108c4 0 143 3 208 2z" />
    <glyph glyph-name="five" unicode="5" 
d="M181 515l3 7c40 -6 62 -9 77 -11c14 -2 20 -3 28 -3c50 0 84 24 115 65c3 3 5 4 10 4c6 0 7 -3 7 -6c0 -34 -55 -120 -175 -120c-10 0 -28 1 -50 3c-5 -24 -23 -119 -27 -155c16 13 56 45 114 45c68 0 151 -48 151 -144c0 -115 -121 -209 -230 -209
c-71 0 -148 38 -148 106c0 44 42 45 44 45c17 0 37 -13 37 -32c0 -8 -7 -40 -7 -46c0 -36 35 -53 73 -53c105 0 154 102 154 206c0 25 -1 107 -82 107c-66 0 -117 -59 -122 -102c-2 -14 -2 -20 -11 -20c-6 0 -9 4 -9 10c0 2 46 295 48 303z" />
    <glyph glyph-name="six" unicode="6" 
d="M127 282c67 52 128 52 144 52c105 0 174 -74 174 -160c0 -82 -72 -183 -201 -183c-119 0 -196 90 -196 238c0 157 94 306 273 306c85 0 133 -44 133 -88c0 -26 -18 -48 -43 -48c-16 0 -37 10 -37 40c0 7 0 40 -2 45c-7 23 -42 32 -65 32c-35 0 -149 -16 -180 -234z
M120 168c0 -102 56 -159 127 -159c90 0 119 95 119 156c0 73 -37 146 -116 146c-48 0 -130 -29 -130 -143z" />
    <glyph glyph-name="seven" unicode="7" 
d="M444 519l-5 -14c-31 -54 -121 -219 -130 -360c-1 -7 -9 -123 -9 -124c-4 -25 -18 -45 -43 -45c-26 0 -39 25 -39 50c0 50 57 178 82 235c14 30 88 183 88 188c0 7 -7 7 -10 7h-182c-40 -1 -76 -1 -104 -55c-7 -13 -10 -14 -15 -14c-4 0 -9 3 -9 10c0 11 23 114 36 148
c2 5 4 9 11 9s8 -2 13 -14c9 -20 39 -20 69 -20c17 0 95 2 111 2c54 0 106 -2 136 -3z" />
    <glyph glyph-name="eight" unicode="8" 
d="M319 297c41 -20 119 -58 119 -146c0 -87 -95 -160 -190 -160c-85 0 -177 56 -177 133c0 68 69 108 125 140c-39 17 -105 47 -105 125c0 72 65 156 173 156c75 0 158 -43 158 -119c0 -66 -63 -105 -103 -129zM297 306c33 18 81 44 81 115c0 79 -67 106 -115 106
c-57 0 -121 -33 -121 -101c0 -63 49 -83 155 -120zM218 256c-99 -60 -99 -125 -99 -135c0 -46 36 -111 130 -111c87 0 128 59 128 113c0 39 -21 72 -49 88c-15 8 -93 37 -110 45z" />
    <glyph glyph-name="nine" unicode="9" 
d="M374 243c-28 -19 -76 -53 -144 -53c-86 0 -174 61 -174 163c0 99 95 182 196 182c86 0 201 -61 201 -237c0 -161 -96 -321 -277 -321c-87 0 -133 43 -133 90c0 32 23 49 45 49c16 0 37 -8 37 -37c0 -5 -3 -30 -3 -35c0 -46 64 -46 72 -46c39 0 89 17 128 79
c36 58 45 121 52 166zM133 366c0 -97 53 -152 116 -152c28 0 131 13 131 145c0 80 -43 156 -127 156c-77 0 -120 -77 -120 -149z" />
    <glyph glyph-name="colon" unicode=":" horiz-adv-x="219" 
d="M111 90c26 0 48 -21 48 -48s-22 -48 -48 -48c-28 0 -48 22 -48 48s21 48 48 48zM111 352c26 0 48 -21 48 -48c0 -26 -22 -48 -48 -48c-28 0 -48 22 -48 48s21 48 48 48z" />
    <glyph glyph-name="semicolon" unicode=";" horiz-adv-x="219" 
d="M101 90c34 0 69 -34 69 -74c0 -53 -35 -109 -70 -140c-21 -17 -48 -32 -53 -32c-4 0 -8 6 -8 10c0 5 21 17 24 20c11 9 54 49 54 100c0 17 -9 19 -19 20c-51 4 -51 42 -51 46c0 11 8 50 54 50zM110 352c26 0 48 -21 48 -48c0 -26 -22 -48 -48 -48c-27 0 -48 22 -48 48
s21 48 48 48z" />
    <glyph glyph-name="less" unicode="&#x3c;" horiz-adv-x="667" 
d="M595 49l-523 223v38l523 221v-47l-466 -193l466 -194v-48z" />
    <glyph glyph-name="equal" unicode="=" horiz-adv-x="667" 
d="M71 427h525v-43h-525v43zM71 200h525v-43h-525v43z" />
    <glyph glyph-name="greater" unicode="&#x3e;" horiz-adv-x="667" 
d="M72 531l523 -222v-39l-523 -221v47l466 194l-466 194v47z" />
    <glyph glyph-name="question" unicode="?" horiz-adv-x="427" 
d="M92 366c30 -24 56 -46 90 -46c66 0 112 91 112 169c0 97 -63 146 -115 146c-11 0 -45 -2 -45 -30c0 -4 2 -22 2 -25c0 -29 -20 -45 -41 -45c-19 0 -43 12 -43 45c0 60 83 73 123 73c103 0 192 -85 192 -188c0 -99 -74 -173 -159 -173c-42 0 -68 16 -87 28
c-2 -28 -8 -119 -8 -146c0 -12 0 -16 -13 -16c-10 0 -11 3 -11 13c0 65 0 150 3 195zM109 87c27 0 48 -22 48 -48c0 -27 -22 -48 -48 -48c-27 0 -48 21 -48 48c0 26 21 48 48 48z" />
    <glyph glyph-name="at" unicode="@" horiz-adv-x="917" 
d="M688 468l-57 -195c-44 -157 -46 -162 -46 -185c0 -11 7 -38 37 -38c90 0 207 139 207 318c0 171 -126 301 -317 301c-259 0 -418 -236 -418 -465c0 -235 162 -390 382 -390c140 0 305 66 392 270h28c-65 -201 -250 -300 -423 -300c-240 0 -426 179 -426 433
c0 276 212 478 462 478c237 0 349 -166 349 -335c0 -150 -93 -345 -269 -345c-43 0 -75 18 -75 68c0 26 5 51 9 69l-2 2c-40 -50 -114 -139 -190 -139c-62 0 -89 66 -89 114c0 152 157 342 269 342c44 0 73 -23 83 -68h2l15 54zM516 448c-94 0 -197 -221 -197 -304
c0 -35 22 -70 57 -70c64 0 125 86 148 121c28 44 53 137 53 181c0 41 -23 72 -61 72z" />
    <glyph glyph-name="A" unicode="A" horiz-adv-x="688" 
d="M321 654h23c54 -112 136 -345 178 -462c58 -162 80 -175 131 -180c11 -1 16 -4 16 -10c0 -7 -4 -7 -8 -7c-9 0 -35 2 -61 3s-51 2 -60 2c-11 0 -42 -1 -72 -2c-29 -1 -57 -3 -69 -3c-2 0 -11 0 -11 9c0 6 3 7 33 10c14 1 51 8 51 46c0 20 -21 79 -29 105
c-8 25 -23 62 -29 83c-47 1 -174 -1 -227 -2c-40 -106 -51 -143 -51 -171c0 -36 36 -59 75 -62c7 0 18 -1 18 -11c0 -3 -2 -5 -6 -7c-7 0 -28 1 -48 3c-20 1 -39 2 -46 2c-9 0 -33 -1 -57 -2c-24 -2 -48 -3 -56 -3c-3 0 -13 0 -13 9c0 7 7 9 14 9c61 9 84 73 98 111
c57 154 64 171 97 264c22 63 64 168 109 266zM302 545c-42 -87 -75 -178 -106 -269c21 1 48 2 75 2c19 0 113 -2 134 -2c-14 39 -87 227 -103 269z" />
    <glyph glyph-name="B" unicode="B" horiz-adv-x="615" 
d="M118 58c17 50 13 91 13 150c0 61 3 167 3 231c0 45 -4 145 -22 166c-6 7 -16 15 -46 19c-5 1 -14 3 -14 11c0 9 10 9 14 9c14 0 76 -2 89 -2c30 0 164 6 191 6c40 0 197 -10 197 -147c0 -107 -97 -138 -151 -155v-2c114 -32 181 -78 181 -170c0 -37 -26 -178 -224 -178
c-7 0 -28 1 -49 2c-20 1 -40 2 -46 2c-32 0 -175 -3 -205 -3c-2 0 -15 0 -15 9c0 7 5 8 43 15c17 3 31 7 41 37zM224 614c-3 -74 -3 -192 -3 -261c16 -10 27 -7 40 -7c56 0 99 9 144 41c39 28 47 61 47 107c0 88 -60 134 -146 134c-33 0 -59 -7 -82 -14zM224 323
c-8 -22 -10 -164 -10 -192c0 -19 0 -87 8 -96c16 -17 86 -17 102 -17c42 0 69 3 102 33c36 32 50 75 50 122c0 116 -76 153 -184 153c-29 0 -51 -1 -68 -3z" />
    <glyph glyph-name="C" unicode="C" horiz-adv-x="646" 
d="M599 625l11 -170c1 -12 2 -22 -8 -22c-8 0 -11 8 -17 22c-37 87 -113 177 -215 177c-132 0 -214 -141 -214 -301c0 -205 137 -312 246 -312c114 0 183 103 199 134c6 11 9 15 15 15c4 0 11 -2 11 -12c0 -14 -81 -169 -264 -169c-142 0 -315 107 -315 328
c0 225 171 339 316 339c81 0 144 -36 179 -56c24 22 27 24 33 38c2 4 8 6 12 6c10 0 11 -7 11 -17z" />
    <glyph glyph-name="D" unicode="D" horiz-adv-x="760" 
d="M231 639l100 1c325 3 386 -210 386 -328c0 -105 -49 -205 -135 -266c-38 -27 -100 -55 -213 -55c-13 0 -47 2 -81 5s-67 4 -79 4c-30 0 -133 -1 -156 -3l-28 -2c-3 0 -12 0 -12 8s6 9 22 11c55 7 77 12 88 79c5 31 15 333 15 376c0 30 -4 121 -25 140
c-14 12 -21 13 -54 18c-5 1 -8 5 -8 10c0 4 2 10 10 10c4 0 23 -1 27 -2c77 -5 85 -7 143 -6zM213 167c0 -86 0 -154 134 -154c217 0 262 209 262 301c0 94 -34 184 -104 246c-54 47 -117 58 -186 58c-86 0 -86 -3 -88 -21c-1 -8 -3 -64 -4 -77c-7 -87 -14 -262 -14 -353z
" />
    <glyph glyph-name="E" unicode="E" horiz-adv-x="656" 
d="M162 0h-120c-6 0 -14 1 -14 8c0 8 10 10 15 10c26 0 64 7 75 35c14 35 10 113 13 234l2 93c1 31 -4 181 -10 197c-9 25 -35 33 -69 42c-5 1 -13 4 -13 11c0 9 14 9 17 9s20 -1 38 -3c18 -1 37 -3 43 -3h417c7 -30 15 -64 28 -153c-2 -2 -3 -4 -6 -4c-5 0 -8 5 -15 17
c-73 126 -144 119 -225 119c-36 0 -78 -1 -113 -8c-4 -8 -6 -40 -6 -46c0 -46 -6 -174 -3 -214c6 0 37 -2 51 -2c85 0 111 21 137 97c2 5 5 11 10 11c7 0 9 -8 9 -15c0 -1 -5 -48 -5 -57c0 -22 -1 -39 -1 -51c0 -22 0 -49 1 -76c1 -6 2 -31 2 -36c0 -4 -1 -15 -9 -15
c-6 0 -9 7 -9 12c-18 96 -73 109 -186 108c-1 -24 -1 -45 -1 -91c0 -142 4 -158 18 -177c25 -34 93 -35 118 -35c73 0 196 10 246 127c1 4 7 17 14 17s8 -8 8 -11c0 -11 -31 -140 -35 -156c-61 -1 -137 0 -213 2s-151 4 -209 4z" />
    <glyph glyph-name="F" unicode="F" horiz-adv-x="625" 
d="M301 -5h-12c-27 3 -45 4 -60 5h-48c-9 0 -36 -1 -62 -2c-25 -1 -51 -3 -59 -3c-5 0 -15 0 -15 9c0 10 12 10 20 10c31 0 44 5 55 30c15 35 15 216 15 268c0 293 -11 294 -90 299c-5 0 -16 2 -16 9c0 10 29 11 42 12c65 5 248 7 427 7c13 0 67 0 72 -3c6 -3 8 -11 9 -17
l20 -121c0 -8 -4 -11 -9 -11c-9 0 -32 40 -37 47c-57 68 -131 83 -199 83c-16 0 -114 -3 -124 -16c-6 -8 -7 -29 -7 -60c0 -48 -2 -149 -2 -192c9 -1 39 -2 53 -2c31 0 120 0 128 100c0 4 1 13 10 13c4 0 12 -3 12 -14c0 -3 -3 -36 -3 -43c0 -42 -2 -67 -2 -139v-38
c0 -6 -4 -15 -12 -15s-8 1 -12 30c-13 91 -98 88 -174 84c-1 -173 -2 -242 3 -263c11 -45 46 -47 70 -48c13 -1 22 -2 22 -10c0 -10 -9 -9 -15 -9z" />
    <glyph glyph-name="G" unicode="G" horiz-adv-x="771" 
d="M670 444c-1 -7 -5 -10 -9 -10c-7 0 -8 2 -16 21c-41 99 -134 177 -242 177c-155 0 -249 -158 -249 -312c0 -161 105 -306 260 -306c23 0 84 0 142 71c9 11 13 15 13 70c0 60 0 131 -90 131c-22 0 -29 0 -29 9c0 8 8 11 16 11c69 0 143 0 207 1c18 0 46 2 64 2
c8 0 11 -2 11 -10c0 -10 -5 -11 -12 -11c-77 -8 -77 -42 -77 -81c0 -11 -3 -119 -5 -125c-5 -12 -58 -37 -76 -45c-61 -27 -122 -47 -191 -47c-170 0 -343 121 -343 324c0 219 187 340 350 340c77 0 134 -26 175 -47c10 -5 26 -13 37 -13c8 0 17 5 19 8c10 15 11 17 18 17
c9 0 10 -4 14 -48c2 -20 14 -125 13 -127z" />
    <glyph glyph-name="H" unicode="H" horiz-adv-x="760" 
d="M538 337l4 113c0 5 1 11 1 16c0 102 -11 152 -78 152c-13 0 -24 0 -24 11c0 7 8 9 14 9c12 0 39 -1 67 -2c29 -1 57 -3 70 -3c10 0 39 1 67 3s54 2 59 2c4 0 14 -1 14 -8c0 -3 -1 -8 -9 -8c-59 0 -80 -19 -86 -52c-11 -63 -15 -375 -15 -446c0 -51 0 -102 86 -112
c6 -1 16 -2 16 -9c0 -8 -10 -8 -13 -8c-12 0 -44 2 -76 3s-64 2 -75 2c-7 0 -31 -2 -49 -3c-20 -1 -42 -2 -49 -2c-1 0 -17 0 -17 8c0 6 7 8 12 8c38 2 66 6 74 55c6 37 5 56 7 241c-23 1 -43 3 -85 3c-59 0 -189 0 -240 -7c-2 -40 -4 -111 -4 -157c0 -95 0 -107 46 -125
c4 -2 22 -7 26 -8s8 -3 8 -9s-6 -8 -11 -8c-3 0 -19 1 -23 2c-26 1 -76 2 -103 2c-23 0 -68 -1 -90 -3c-4 0 -19 -2 -22 -2s-12 1 -12 8s9 9 16 10c61 9 65 36 70 73c8 59 12 254 12 322c0 43 0 162 -19 189c-11 16 -32 21 -50 23c-9 1 -10 3 -11 8c-1 9 12 10 24 10
c4 0 20 -1 40 -2s43 -3 60 -3c18 0 38 1 58 3c19 2 38 2 52 2c5 0 14 0 14 -9c0 -5 -3 -8 -13 -9c-64 -6 -64 -23 -66 -54c-5 -84 -3 -148 -2 -229c43 -3 89 -5 175 -5c24 0 129 4 150 5z" />
    <glyph glyph-name="I" unicode="I" horiz-adv-x="375" 
d="M281 -1c-35 0 -88 1 -150 1c-16 0 -51 -2 -55 -1c-6 0 -11 3 -11 9c0 10 10 11 14 11c18 0 49 2 55 38c5 29 6 142 6 179c0 62 0 301 -12 345c-6 22 -19 37 -57 43c-8 1 -13 4 -13 11c0 9 7 9 10 9c13 0 70 -2 81 -2c23 0 123 2 144 2c10 0 25 0 25 -10
c0 -7 -11 -8 -14 -9c-37 -5 -66 -15 -72 -55c-8 -51 -8 -170 -8 -230c0 -57 4 -234 9 -265c8 -47 42 -54 72 -58c4 0 13 -2 13 -9s-12 -9 -37 -9z" />
    <glyph glyph-name="J" unicode="J" horiz-adv-x="385" 
d="M277 369v-178c0 -78 -21 -117 -47 -145c-39 -42 -92 -57 -125 -57c-36 0 -104 18 -104 80c0 31 20 48 44 48c26 0 40 -20 40 -37c0 -9 -1 -12 -9 -27c-2 -3 -4 -8 -4 -15c0 -16 15 -28 35 -28c77 0 82 83 84 104c4 41 2 74 2 212c0 42 1 225 -6 253c-5 18 -15 37 -64 42
c-6 1 -14 2 -14 11c0 6 6 10 13 10h55c20 -1 39 -1 54 -1c13 0 35 1 57 2c21 0 43 1 53 1c26 0 27 -5 27 -13c0 -10 -10 -10 -13 -10c-33 0 -53 -11 -62 -28c-15 -29 -16 -183 -16 -224z" />
    <glyph glyph-name="K" unicode="K" horiz-adv-x="677" 
d="M644 -5c-4 0 -17 2 -33 3c-16 2 -35 3 -53 3c-14 0 -39 -1 -67 -2c-28 38 -31 46 -51 170c-2 13 -18 117 -58 160c-13 14 -32 22 -54 22c-53 0 -111 -49 -115 -57c-5 -14 -6 -82 -6 -148c0 -86 0 -122 75 -131c6 0 17 -1 17 -10c0 -7 -7 -9 -12 -9c-8 0 -27 1 -49 2
s-47 2 -70 2c-46 0 -99 -5 -104 -5c-7 0 -21 -1 -21 7c0 4 2 8 14 10c54 9 57 35 60 76c1 20 11 138 11 200c0 15 -1 261 -17 302c-10 25 -28 27 -61 31c-4 1 -12 3 -12 9c0 11 16 11 22 11c17 0 62 0 108 1c45 1 90 2 105 2c8 0 13 -2 13 -9c0 -8 -5 -8 -51 -14
c-26 -3 -26 -41 -26 -49c0 -39 4 -212 5 -247c56 38 56 38 186 181c10 12 56 60 56 84c0 17 -24 29 -44 32c-9 2 -19 3 -19 12c0 7 7 8 15 8c19 0 99 2 116 2c12 0 105 -1 110 -3c4 -1 5 -4 5 -7c0 -6 -3 -9 -14 -11c-53 -10 -78 -15 -155 -84c-20 -18 -85 -77 -149 -157
c162 3 186 -111 204 -202c9 -44 31 -144 115 -167c12 -3 19 -3 19 -10c0 -8 -4 -8 -15 -8z" />
    <glyph glyph-name="L" unicode="L" horiz-adv-x="615" 
d="M572 -5h-29c-60 0 -95 1 -138 3c-42 1 -92 2 -183 2h-69c-5 0 -28 -1 -50 -2s-43 -3 -46 -3c-29 0 -38 1 -38 9c0 7 11 9 15 9c33 2 80 8 91 70c4 24 9 43 9 351c0 106 -1 183 -99 191c-4 0 -10 2 -10 10s9 9 14 9c13 0 71 -4 85 -4c33 -1 102 -1 114 -1l81 1
c2 0 13 0 13 -9s-10 -9 -14 -9s-82 -1 -92 -59c-6 -34 -8 -243 -8 -287c0 -42 0 -153 3 -189c5 -65 58 -66 83 -66c101 0 156 1 237 103c9 11 30 39 42 67c4 12 8 13 12 13c7 0 9 -5 9 -12c0 -12 -24 -166 -32 -197z" />
    <glyph glyph-name="M" unicode="M" horiz-adv-x="927" 
d="M718 510l1 36c0 3 0 9 -4 9c-3 0 -8 -5 -10 -8c-45 -89 -50 -99 -96 -187c-102 -196 -107 -221 -150 -326c-10 -23 -11 -26 -18 -26c-4 0 -7 7 -13 23c-22 58 -241 504 -257 516c0 1 -2 2 -4 2c-4 0 -4 -4 -5 -17c-1 -72 -6 -330 -6 -393c0 -56 1 -125 82 -126
c12 0 25 -1 25 -11c0 -5 -6 -7 -12 -7c-9 1 -31 2 -52 3c-20 1 -41 2 -49 2c-35 0 -90 -2 -126 -5c-3 2 -6 5 -6 8c0 9 11 10 17 10c86 0 96 66 95 170l-1 86c0 21 7 199 7 218c0 63 -7 128 -88 138c-8 1 -19 2 -19 10c0 3 3 9 14 9c15 0 49 -1 90 -2c39 -1 69 -2 101 -3
c51 -112 58 -125 121 -247c14 -26 70 -147 82 -171c14 -27 24 -45 34 -62c83 135 178 349 235 480c29 0 157 1 183 0c9 0 22 0 22 -9c0 -6 -5 -8 -12 -8c-66 -6 -83 -23 -90 -71c-5 -32 -14 -214 -14 -324c0 -25 1 -134 2 -152c3 -53 35 -58 75 -63c10 -2 12 -5 12 -10
c0 -7 -11 -7 -15 -7c-9 0 -27 1 -48 3s-46 2 -72 2c-51 0 -103 -4 -120 -5c-10 0 -16 1 -16 8c0 5 4 8 11 8c72 10 81 21 81 181c0 144 9 161 13 318z" />
    <glyph glyph-name="N" unicode="N" horiz-adv-x="750" 
d="M291 503l270 -316c9 -9 23 -25 26 -29c4 70 5 172 5 244c0 120 -1 151 -29 181c-29 32 -71 36 -78 36c-12 0 -19 0 -19 8c0 6 4 9 10 10c9 1 123 -6 152 -4l87 5c5 0 16 0 16 -9c0 -6 -7 -9 -13 -9c-101 -11 -101 -51 -101 -226c0 -126 0 -253 -5 -379
c0 -3 -1 -15 -10 -15c-7 0 -15 10 -19 14c-34 41 -189 220 -220 257s-73 89 -92 109c-25 27 -71 76 -83 97c-6 11 -13 15 -15 15c-6 0 -6 -8 -6 -19c0 -222 8 -294 15 -357c3 -26 8 -72 62 -91c8 -2 43 -10 50 -12c4 -1 6 -5 6 -9c0 -9 -12 -9 -18 -9c-15 1 -62 5 -114 5
c-51 1 -107 -3 -121 -4c-5 0 -17 1 -17 8c0 8 9 10 16 10c98 0 100 58 100 145c0 84 -4 218 -6 302c-1 31 -4 76 -60 133c-11 11 -28 22 -49 25c-4 0 -17 2 -17 8c0 10 13 10 22 10c47 0 125 0 143 -1c31 -42 36 -44 112 -133z" />
    <glyph glyph-name="O" unicode="O" horiz-adv-x="729" 
d="M43 324c0 125 114 326 331 326c197 0 312 -169 312 -318c0 -158 -133 -341 -335 -341c-155 0 -308 116 -308 333zM151 340c0 -51 12 -179 69 -253c29 -38 85 -72 144 -72c159 0 214 197 214 312c0 133 -70 299 -216 299c-152 0 -211 -185 -211 -286z" />
    <glyph glyph-name="P" unicode="P" horiz-adv-x="615" 
d="M243 0h-180c-6 0 -16 0 -16 9c0 7 12 10 18 11c28 7 44 11 55 41c8 21 10 138 10 169v10v261c0 97 -9 113 -51 121c-30 6 -32 9 -32 14c0 9 10 9 20 9h279c69 -2 227 -15 227 -168c0 -170 -211 -171 -278 -171c-32 0 -56 2 -78 3c1 -17 -5 -94 -5 -109
c0 -148 10 -154 35 -169c13 -8 19 -9 44 -13c4 0 12 -2 12 -9s-7 -8 -11 -8c-11 -1 -37 -1 -49 -1zM217 329c9 -1 76 -3 81 -3c17 0 95 1 137 46c23 25 42 76 42 121c0 131 -136 130 -174 130c-46 0 -65 -4 -86 -9c0 -20 2 -117 2 -139c0 -21 -2 -123 -2 -146z" />
    <glyph glyph-name="Q" unicode="Q" horiz-adv-x="729" 
d="M418 -5l-2 2c-9 -1 -21 -2 -35 -4c-13 -1 -27 -2 -39 -2c-141 0 -298 120 -298 319c0 170 133 339 329 339c204 0 312 -175 312 -317c0 -83 -41 -199 -135 -274c-54 -43 -120 -82 -174 -103c-91 -35 -101 -38 -134 -52l2 -2c51 4 80 2 143 -36c104 -63 121 -72 159 -72
c50 0 74 29 101 63c2 2 8 10 14 10c4 0 10 -3 10 -10c0 -5 -61 -122 -183 -122c-47 0 -88 13 -182 78c-71 49 -79 55 -106 55c-51 0 -56 -43 -57 -59c-3 -48 -7 -67 -40 -67c-23 0 -35 21 -35 35c0 40 55 107 167 149c130 49 144 55 183 70zM152 334
c0 -119 44 -319 212 -319c156 0 213 186 213 308c0 131 -65 302 -215 302c-152 0 -210 -181 -210 -291z" />
    <glyph glyph-name="R" unicode="R" horiz-adv-x="677" 
d="M295 0h-241c-11 0 -21 0 -21 9c0 8 13 8 16 8c55 0 84 13 84 133v251c0 43 -2 156 -14 188c-8 21 -27 30 -72 37c-9 1 -10 4 -10 8c0 7 6 8 20 8c127 0 141 2 217 4c39 1 69 2 74 2c85 0 126 -12 168 -44c37 -28 58 -64 58 -113c0 -112 -91 -140 -169 -164
c105 -45 119 -86 132 -160c11 -61 31 -140 109 -149c27 -3 27 -3 27 -10c0 -6 -4 -9 -15 -9c-165 0 -171 8 -181 21c-17 23 -19 37 -35 133c-21 129 -57 168 -165 168c-25 0 -39 -3 -57 -5c-1 -13 -3 -34 -3 -66c0 -124 0 -162 10 -192c12 -36 49 -39 78 -41
c4 0 12 -1 12 -8c0 -9 -10 -9 -22 -9zM220 340c61 1 116 2 158 20c83 36 95 100 95 133c0 23 -7 134 -153 134c-42 0 -71 -5 -98 -11c-1 -33 -6 -181 -6 -214c0 -6 1 -24 4 -62z" />
    <glyph glyph-name="S" unicode="S" horiz-adv-x="521" 
d="M388 605c13 12 15 17 18 27c2 6 5 11 11 11c2 0 5 0 9 -4c2 -13 22 -159 22 -163c0 -5 -7 -9 -11 -9c-3 0 -6 0 -10 10c-28 70 -95 149 -189 149c-76 0 -117 -57 -117 -112c0 -79 66 -101 166 -133c67 -21 201 -63 201 -192c0 -101 -95 -199 -221 -199
c-20 0 -87 2 -168 52c-15 -14 -17 -20 -23 -39c-1 -3 -3 -9 -11 -9c-7 0 -9 3 -11 23c-5 46 -12 152 -14 186c1 6 7 7 10 7c5 0 8 -2 12 -11c60 -135 124 -189 210 -189c105 0 142 80 142 132c0 100 -103 133 -180 158c-94 30 -126 51 -152 81c-24 27 -38 65 -38 99
c0 88 89 166 203 166c64 0 109 -24 141 -41z" />
    <glyph glyph-name="T" unicode="T" horiz-adv-x="719" 
d="M633 640h50c2 -13 15 -133 15 -141s-2 -12 -11 -12s-9 0 -42 52c-6 9 -39 59 -124 69c-23 3 -35 3 -113 4c-3 -36 -6 -78 -6 -168c0 -140 0 -290 13 -361c4 -23 11 -65 96 -65c12 0 21 0 21 -8c0 -10 -13 -10 -20 -10h-300c-5 0 -11 3 -11 9c0 10 10 10 21 10
c34 0 77 17 87 60c5 21 9 32 9 215c0 47 -4 216 -12 318c-16 1 -38 2 -53 2c-54 0 -146 -3 -200 -101c-3 -4 -9 -26 -12 -30c-2 -2 -7 -3 -9 -3c-5 0 -7 2 -10 4c2 44 17 142 19 156c16 0 58 1 80 0c109 -5 121 -7 204 -7c54 0 204 0 248 3c38 3 42 4 60 4z" />
    <glyph glyph-name="U" unicode="U" horiz-adv-x="760" 
d="M51 639h245c13 0 21 0 21 -8s-9 -9 -32 -13c-66 -10 -69 -89 -69 -242c0 -142 2 -208 21 -253c33 -80 122 -93 176 -93c87 0 171 27 189 134c10 60 13 163 13 275c0 96 -7 179 -91 180c-8 0 -19 1 -19 10c0 10 11 10 24 10h196c5 0 13 -1 13 -10c0 -3 -1 -6 -11 -8
c-68 -10 -82 -33 -82 -228c-1 -76 -2 -225 -30 -288c-27 -60 -105 -114 -241 -114c-38 0 -160 6 -214 81c-25 35 -33 72 -33 152c0 21 2 115 2 135c0 212 -13 226 -28 241c-14 15 -28 17 -59 21c-5 0 -11 2 -11 8c0 10 10 10 20 10z" />
    <glyph glyph-name="V" unicode="V" horiz-adv-x="677" 
d="M355 -10h-29c-24 78 -169 460 -212 552c-21 45 -34 65 -78 72c-23 4 -25 4 -25 10c0 9 5 9 29 9h239c18 0 24 0 24 -8c0 -10 -11 -11 -15 -11c-34 0 -65 -13 -65 -55c0 -68 144 -434 149 -445c21 55 107 297 125 346c11 29 24 71 24 98c0 40 -28 54 -63 57
c-10 1 -13 4 -13 9c0 9 3 9 32 9h163c28 0 31 0 31 -8c0 -9 -6 -10 -25 -13c-63 -10 -93 -83 -154 -256c-53 -151 -61 -168 -122 -324c-8 -21 -10 -28 -15 -42z" />
    <glyph glyph-name="W" unicode="W" horiz-adv-x="1031" 
d="M367 -10h-15c-34 74 -207 497 -256 568c-16 23 -42 53 -74 56c-5 1 -15 2 -15 10c0 9 3 9 37 9h213c20 0 29 0 29 -9c0 -8 -11 -9 -27 -11c-8 -1 -50 -6 -50 -48c0 -20 27 -85 38 -111c94 -223 103 -248 139 -328c27 72 104 296 124 365c-40 98 -44 109 -75 118
c-6 2 -36 4 -40 9c-1 1 -1 4 -1 5c0 10 3 10 35 10h209c22 0 30 0 30 -11c0 -6 -4 -7 -39 -13c-23 -4 -40 -24 -40 -49c0 -39 31 -119 53 -177c63 -166 72 -184 102 -251c22 59 60 166 122 339c19 52 20 69 20 83c0 27 -11 59 -62 60c-6 0 -14 1 -14 10s8 9 29 9h119
c62 0 69 0 69 -10c0 -6 -6 -7 -11 -8c-69 -5 -95 -73 -122 -142c-30 -76 -146 -416 -175 -483h-13c-18 49 -35 93 -66 169c-56 138 -61 150 -116 289c-16 -46 -86 -249 -100 -291c-42 -127 -48 -141 -57 -167z" />
    <glyph glyph-name="X" unicode="X" horiz-adv-x="740" 
d="M457 633h204c27 0 30 0 30 -8c0 -9 -3 -9 -27 -10c-46 -2 -83 -33 -114 -67c-23 -25 -110 -135 -144 -193c13 -21 140 -205 184 -257c49 -58 83 -83 124 -84c6 -1 18 -1 18 -11c0 -8 -11 -8 -19 -8c-10 0 -37 1 -65 3c-27 1 -54 2 -63 2c-11 0 -42 -1 -73 -2
c-30 -2 -60 -3 -71 -3c-15 0 -23 0 -23 8c0 10 9 10 12 10c28 0 63 9 63 41c0 40 -123 199 -144 227c-36 -41 -141 -189 -141 -220c0 -23 36 -43 84 -47c5 0 18 -1 18 -10c0 -8 -10 -9 -17 -9c-9 0 -35 3 -60 4s-49 1 -58 1c-7 0 -65 -1 -102 -3c-4 0 -21 -2 -25 -2
c-11 0 -14 6 -14 10c0 8 9 10 15 10c39 0 78 13 110 50c29 34 140 191 170 239c-19 27 -100 145 -118 169c-59 78 -99 134 -161 140c-26 3 -29 3 -29 11c0 9 8 9 24 9h257c20 0 26 0 26 -9c0 -8 -4 -9 -37 -11c-20 -1 -40 -14 -40 -31c0 -24 94 -158 135 -205
c25 31 84 114 96 133c19 29 25 43 25 59c0 27 -29 43 -60 45c-10 1 -20 2 -20 11c0 8 3 8 30 8z" />
    <glyph glyph-name="Y" unicode="Y" horiz-adv-x="708" 
d="M487 633h184c14 0 26 0 26 -10c0 -8 -7 -8 -12 -8c-66 0 -89 -30 -189 -165c-84 -113 -84 -114 -89 -129c-5 -18 -7 -95 -7 -107c0 -29 1 -139 8 -160c8 -23 34 -35 54 -37c32 -3 36 -4 36 -12c0 -10 -15 -10 -17 -10c-11 0 -42 3 -73 4c-30 1 -60 1 -71 1
c-7 0 -28 -2 -49 -3c-20 -1 -41 -2 -48 -2c-6 0 -18 1 -18 10c0 7 6 8 13 8c54 3 79 35 79 134c0 14 -4 111 -13 127c-31 55 -166 286 -226 326c-16 11 -24 12 -48 16c-3 0 -11 1 -11 8c0 9 8 9 33 9h227c8 0 17 0 17 -9c0 -7 -6 -8 -24 -10c-50 -6 -50 -32 -50 -36
c0 -19 21 -50 31 -64c41 -58 86 -122 128 -180c38 41 85 110 125 168c20 30 34 51 34 69c0 37 -52 44 -61 44s-17 0 -17 9s10 9 28 9z" />
    <glyph glyph-name="Z" unicode="Z" horiz-adv-x="635" 
d="M507 0h-433c-15 -1 -25 -2 -25 7c0 15 216 333 251 384c33 49 89 126 122 176c14 21 16 25 26 47c-78 4 -129 4 -135 4c-144 0 -167 -30 -236 -131c-1 -2 -6 -8 -10 -8c-5 0 -9 4 -9 9c0 4 33 109 38 124c4 9 12 35 18 35c3 0 65 -4 73 -5c42 -2 137 -2 184 -2
c52 0 112 0 177 5c2 1 14 2 17 2c2 0 5 -1 5 -6c0 -7 -3 -11 -12 -25c-77 -115 -134 -198 -214 -314c-9 -13 -129 -188 -179 -278c46 -1 77 -2 121 -2c64 0 184 0 250 81l54 66c2 1 4 2 7 2c7 0 8 -6 8 -9v-2c-23 -67 -25 -74 -48 -147l-4 -11c-17 -2 -25 -2 -46 -2z" />
    <glyph glyph-name="bracketleft" unicode="[" horiz-adv-x="510" 
d="M140 587c1 -71 1 -225 1 -299c0 -78 -4 -245 -4 -349c0 -82 0 -99 3 -138c94 35 154 55 222 55c107 0 129 -55 129 -80c0 -15 -6 -42 -20 -42c-3 0 -9 1 -9 7c0 3 6 15 6 18c0 28 -30 28 -70 28c-38 0 -126 -5 -181 -12c-27 -3 -60 -9 -80 -9c-18 0 -22 3 -22 10
c-2 88 -4 417 -4 475c0 87 3 324 10 360c1 5 2 8 12 8c7 0 39 -3 45 -3c65 -5 135 -7 167 -7c114 0 123 12 123 31c0 3 -5 15 -5 17c0 3 3 8 9 8c11 0 19 -18 19 -35c0 -36 -40 -89 -119 -89c-74 0 -186 33 -232 46z" />
    <glyph glyph-name="backslash" unicode="\" 
d="M99 660l344 -678h-42l-344 678h42z" />
    <glyph glyph-name="bracketright" unicode="]" horiz-adv-x="510" 
d="M369 -187c-1 71 -1 225 -1 299c0 78 4 245 4 349c0 82 0 99 -3 138c-94 -35 -154 -55 -222 -55c-107 0 -129 55 -129 80c0 15 6 42 20 42c3 0 9 -1 9 -7c0 -3 -6 -15 -6 -18c0 -28 30 -28 70 -28c38 0 126 5 181 12c27 3 60 9 80 9c18 0 22 -3 22 -10
c0 -88 4 -417 4 -475c0 -87 -3 -324 -10 -360c-1 -5 -2 -8 -12 -8c-7 0 -39 3 -45 3c-65 5 -135 7 -167 7c-114 0 -123 -12 -123 -31c0 -3 5 -15 5 -17c0 -3 -3 -8 -9 -8c-11 0 -19 18 -19 35c0 36 40 89 119 89c74 0 186 -33 232 -46z" />
    <glyph glyph-name="asciicircum" unicode="^" horiz-adv-x="469" 
d="M243 633l208 -350h-45l-171 286l-171 -286h-46l211 350h14z" />
    <glyph glyph-name="underscore" unicode="_" 
d="M506 -125h-512v50h512v-50z" />
    <glyph glyph-name="quoteleft" unicode="&#x2018;" horiz-adv-x="208" 
d="M116 457c-30 0 -58 22 -58 58c0 75 109 133 115 133c9 0 9 -7 9 -9c0 -4 -4 -8 -13 -15c-37 -29 -58 -48 -58 -70c0 -12 11 -18 23 -24c7 -3 25 -12 25 -35c0 -18 -15 -38 -43 -38z" />
    <glyph glyph-name="a" unicode="a" horiz-adv-x="438" 
d="M285 62h-2c-16 -23 -51 -69 -130 -69c-77 0 -106 49 -106 96c0 54 32 97 97 119c119 40 144 48 144 99c0 72 -39 91 -78 91c-57 0 -64 -34 -71 -68c-1 -7 -9 -45 -39 -45c-2 0 -36 5 -36 43c0 34 36 90 152 90c53 0 93 -11 120 -36c17 -15 20 -37 20 -95
c0 -21 -3 -113 -3 -132c0 -117 18 -135 42 -135c4 0 19 2 22 2c8 0 11 -4 11 -8c0 -18 -79 -18 -96 -18c-46 0 -47 24 -47 66zM284 253c-19 -22 -26 -26 -90 -59c-20 -10 -73 -42 -73 -96c0 -40 27 -74 65 -74c18 0 40 6 59 22c38 32 42 75 42 119c0 37 -1 68 -3 88z" />
    <glyph glyph-name="b" unicode="b" 
d="M150 642l-1 -34c0 -4 -3 -158 -3 -244c21 20 57 55 125 55c104 0 187 -92 187 -204c0 -89 -58 -224 -196 -224c-19 0 -57 2 -103 22c-8 3 -40 29 -49 29c-6 0 -14 -8 -16 -13c-7 -25 -8 -28 -15 -28c-9 0 -9 10 -9 13c0 70 7 378 7 441c0 25 0 144 -3 156
c-7 21 -19 25 -39 31c-6 2 -11 6 -11 10c0 8 11 8 15 8c7 0 99 -4 104 -5c6 -2 7 -7 7 -13zM139 151c0 -50 2 -74 28 -104c17 -19 45 -35 85 -35c89 0 125 103 125 186c0 30 -4 196 -127 196c-49 0 -80 -32 -90 -59c-17 -43 -21 -137 -21 -184z" />
    <glyph glyph-name="c" unicode="c" horiz-adv-x="417" 
d="M33 197c0 111 79 223 197 223c33 0 151 -20 151 -91c0 -22 -15 -38 -31 -38c-27 0 -36 25 -42 44c-10 30 -28 67 -79 67c-111 0 -112 -153 -112 -175c0 -119 59 -208 137 -208c52 0 106 47 113 100c2 12 5 14 11 14c8 0 9 -5 9 -8c0 -51 -50 -132 -162 -132
c-118 0 -192 104 -192 204z" />
    <glyph glyph-name="d" unicode="d" horiz-adv-x="510" 
d="M420 666v-151v-129c0 -49 -4 -266 -4 -310c0 -37 14 -54 47 -59c7 -2 16 -4 16 -11c0 -8 -4 -8 -36 -8c-21 0 -70 0 -95 1c-1 37 -1 49 0 88l-2 2c-21 -39 -56 -98 -132 -98c-66 0 -178 66 -178 203c0 113 78 223 193 223c38 0 88 -13 118 -70h2c1 28 2 60 2 108
c0 165 0 188 -36 192c-23 3 -26 4 -26 11c0 8 7 8 23 8h108zM350 231c0 38 -8 79 -17 100c-13 31 -44 67 -96 67c-112 0 -117 -132 -117 -195c0 -176 98 -180 111 -180c31 0 63 21 82 47c16 22 37 57 37 161z" />
    <glyph glyph-name="e" unicode="e" horiz-adv-x="427" 
d="M116 228c-2 -17 -2 -31 -2 -40c0 -89 59 -164 142 -164c42 0 81 21 108 46c13 12 15 14 19 14c8 0 8 -11 8 -13c-28 -50 -93 -81 -162 -81c-107 0 -195 82 -195 206c0 140 111 224 195 224c83 0 172 -74 172 -168c0 -18 -3 -20 -39 -20c-39 0 -211 -4 -246 -4zM116 253
c36 -1 86 -3 122 -3c48 0 86 3 86 50c0 54 -43 102 -93 102c-17 0 -95 -5 -115 -149z" />
    <glyph glyph-name="f" unicode="f" horiz-adv-x="281" 
d="M229 -5l-17 2c-14 2 -46 3 -81 3c-8 0 -32 -2 -52 -3c-7 0 -42 -2 -44 -2c-8 0 -11 4 -11 8c0 6 1 7 26 13c32 8 37 16 39 67c4 93 8 170 6 286c-10 0 -55 2 -62 3c-6 1 -14 3 -14 10c0 28 17 29 76 30c-1 73 -5 254 177 254c16 0 115 0 115 -75c0 -31 -27 -34 -32 -34
c-19 0 -26 14 -43 48c-16 31 -35 42 -63 41s-51 -2 -70 -45c-16 -37 -22 -92 -22 -134c0 -22 1 -40 2 -55c22 1 23 1 63 -1c18 -1 37 -2 37 -14c0 0 -5 -24 -18 -26c-2 -1 -39 -4 -82 -2c-2 -32 -2 -51 -2 -215c0 -99 0 -134 69 -143c10 -1 14 -5 14 -9c0 -5 -6 -7 -11 -7z
" />
    <glyph glyph-name="g" unicode="g" horiz-adv-x="542" 
d="M389 350c11 -20 21 -38 21 -77c0 -73 -45 -149 -161 -158c-53 -4 -74 -6 -101 -25c-9 -8 -16 -17 -16 -30c0 -37 56 -40 120 -42c136 -4 162 -6 196 -32c33 -26 39 -61 39 -85c0 -140 -159 -167 -264 -167c-38 0 -185 0 -185 97c0 59 71 100 144 123v2
c-54 9 -111 20 -111 73c0 62 73 84 105 94v2c-86 26 -104 87 -104 128c0 89 75 166 179 166c73 0 105 -32 125 -52c31 34 56 57 94 57c48 0 64 -36 64 -56c0 -19 -16 -31 -33 -31c-19 0 -33 17 -36 22c-9 20 -12 25 -24 25c-19 0 -33 -14 -52 -34zM149 268
c0 -68 30 -133 99 -133c32 0 85 26 85 128c0 88 -40 138 -90 138c-77 0 -94 -86 -94 -133zM279 -46c-71 0 -179 -34 -179 -110s94 -90 146 -90c137 0 186 71 186 122c0 20 -10 36 -19 45c-23 27 -103 33 -134 33z" />
    <glyph glyph-name="h" unicode="h" horiz-adv-x="521" 
d="M464 0h-131c-13 0 -21 0 -21 8c0 6 4 8 11 9c36 5 39 19 41 27c4 15 5 74 5 126c0 108 0 225 -94 225c-49 0 -91 -40 -103 -79c-13 -41 -15 -153 -15 -199c0 -33 0 -82 15 -92c10 -7 23 -10 28 -11s12 -3 12 -9s-6 -8 -12 -8c-7 0 -28 1 -49 1s-42 1 -50 1
c-4 0 -17 0 -30 -1c-12 0 -24 -1 -27 -1s-12 0 -12 8c0 5 3 6 19 10c25 6 29 14 33 40c11 70 12 226 12 382c0 117 -3 200 -58 212c-11 2 -14 4 -14 9c0 3 2 5 9 5c69 0 74 1 129 4c1 -51 -2 -275 0 -320c47 57 97 72 140 72c126 0 133 -100 133 -171c0 -19 -2 -106 -2 -124
c0 -74 0 -76 3 -84c6 -17 27 -25 37 -25c9 0 13 -2 13 -6c0 -9 -6 -9 -22 -9z" />
    <glyph glyph-name="i" unicode="i" horiz-adv-x="260" 
d="M165 420l-1 -110c-1 -78 1 -163 1 -241c0 -29 3 -51 46 -53c16 -1 27 -2 27 -11c0 -4 -3 -8 -11 -8c-15 0 -80 6 -93 6c-15 0 -83 -4 -96 -4c-5 0 -12 0 -12 9c0 8 4 9 43 14c23 3 27 18 27 57c0 32 3 176 3 206c0 87 -5 98 -43 106c-5 1 -23 3 -26 5c-2 1 -3 5 -3 6
c0 7 8 9 15 9c37 3 92 7 123 9zM110 658c31 0 47 -26 47 -43c0 -18 -9 -46 -44 -46c-17 0 -46 11 -46 44c0 27 17 45 43 45z" />
    <glyph glyph-name="j" unicode="j" horiz-adv-x="271" 
d="M114 271c0 108 1 121 -45 121c-28 0 -32 1 -32 10s8 8 28 10c36 3 79 6 118 8c-1 -104 -3 -451 -6 -486c-16 -182 -127 -194 -159 -194c-66 0 -92 43 -92 77c0 33 24 48 40 48c17 0 37 -12 37 -37c0 -7 -11 -37 -11 -43c0 -18 19 -25 35 -25c4 0 74 -1 84 86
c4 33 3 363 3 425zM136 682c20 0 43 -18 43 -43c0 -26 -26 -41 -43 -41c-20 0 -41 16 -41 42c0 17 11 42 41 42z" />
    <glyph glyph-name="k" unicode="k" 
d="M309 409l123 1c4 0 14 0 14 -9c0 -5 -2 -8 -11 -9c-37 -7 -57 -14 -94 -48c-12 -11 -58 -60 -68 -69c41 -23 76 -58 106 -188c9 -39 18 -66 87 -69c10 0 15 -4 15 -9c0 -9 -12 -9 -25 -9h-118c-20 18 -26 27 -34 82c-10 71 -30 118 -93 141c-10 -8 -38 -27 -57 -41
c-1 -31 -2 -120 16 -144c8 -12 17 -20 35 -21c7 0 15 -1 15 -9s-3 -8 -31 -8h-142c-18 0 -25 0 -25 8c0 6 4 9 11 10c43 6 55 21 55 97c0 65 -6 351 -7 409c-1 54 -1 101 -58 110c-9 1 -12 4 -12 9c0 7 5 7 22 9c18 2 101 12 118 13c2 -13 0 -71 0 -83c0 -96 3 -185 3 -281
v-96c116 80 162 140 162 163c0 16 -18 21 -30 22c-17 1 -25 2 -25 10c0 2 1 7 8 8c6 1 33 1 40 1z" />
    <glyph glyph-name="l" unicode="l" horiz-adv-x="281" 
d="M166 669h8c1 -20 2 -106 2 -123c0 -220 0 -462 3 -486c5 -40 40 -46 62 -48c5 -1 16 -2 16 -10c0 -3 -3 -8 -13 -8c-7 0 -36 3 -42 4c-24 2 -70 2 -87 2c-14 0 -33 0 -49 -1c-4 -1 -24 -3 -28 -3c-5 0 -15 0 -15 9c0 6 1 7 24 9c61 5 60 57 60 109c0 63 1 398 -4 437
c-6 45 -37 63 -68 68c-11 2 -19 3 -19 10c0 8 3 8 30 11c40 4 83 7 120 20z" />
    <glyph glyph-name="m" unicode="m" horiz-adv-x="781" 
d="M732 0h-150c-11 0 -22 0 -22 9c0 8 8 9 13 9c48 0 52 18 56 48c4 33 5 76 5 139c0 80 3 190 -86 190c-50 0 -75 -34 -99 -66c-18 -69 -17 -162 -17 -213c0 -75 4 -99 49 -99c22 0 24 0 24 -8c0 -9 -13 -9 -20 -9h-164c-15 0 -25 0 -25 10c0 8 6 8 25 9c17 1 26 9 33 21
c8 14 14 86 14 180c0 96 -18 169 -82 169c-52 0 -93 -48 -104 -80c-13 -38 -16 -161 -16 -184c0 -84 1 -107 46 -107c14 0 18 0 18 -10c0 -8 -11 -8 -19 -8h-152c-19 0 -27 0 -27 10c0 7 1 7 28 10c13 0 26 12 29 33c3 19 8 83 8 165c0 109 -1 122 -4 137
c-5 34 -31 37 -44 38c-23 3 -26 3 -26 10c0 9 3 8 33 11c62 6 88 6 111 5c6 -19 6 -25 5 -80c22 24 74 80 148 80c69 0 103 -46 119 -66c49 47 85 67 141 67c32 0 80 -11 105 -44c32 -43 19 -114 18 -172c-1 -57 -2 -112 -1 -145s18 -40 40 -40c12 0 17 0 17 -9
c0 -10 -9 -10 -27 -10z" />
    <glyph glyph-name="n" unicode="n" horiz-adv-x="531" 
d="M280 386c-41 0 -84 -37 -103 -84s-26 -82 -26 -128c0 -71 -6 -95 3 -124c8 -26 24 -33 47 -36c8 -1 11 -3 11 -10c0 -5 -5 -6 -10 -6c-19 0 -100 2 -116 2c-8 0 -44 -1 -52 0c-5 0 -9 2 -9 7c0 9 4 9 36 16c22 5 25 30 26 41c4 48 5 133 5 199c0 70 0 119 -37 131
c-24 8 -27 9 -27 14c0 9 11 9 15 9c36 0 71 0 106 1c10 -29 10 -36 13 -97h2c33 53 77 96 143 96c126 0 131 -98 131 -169c0 -19 -2 -106 -2 -124c0 -74 0 -75 3 -84s23 -21 39 -23c8 -1 14 -4 14 -8c0 -9 -9 -9 -25 -9c-22 0 -42 5 -64 5s-50 -5 -71 -5c-13 0 -21 0 -21 8
c0 6 4 8 11 9c36 5 43 19 45 27c4 15 5 79 5 126c0 100 6 216 -92 216z" />
    <glyph glyph-name="o" unicode="o" horiz-adv-x="490" 
d="M34 204c0 105 86 217 215 217c110 0 207 -86 207 -205c0 -116 -97 -223 -215 -223c-110 0 -207 90 -207 211zM111 207c0 -107 57 -194 136 -194c81 0 132 93 132 189c0 87 -45 199 -138 199c-76 0 -130 -82 -130 -194z" />
    <glyph glyph-name="p" unicode="p" 
d="M218 -237l-2 -4l-3 -3c-19 1 -62 4 -94 4c-17 0 -91 -2 -106 -2c-5 0 -9 1 -9 9c0 7 5 8 23 10c33 4 47 8 52 52c5 47 9 219 9 275l-1 117c0 43 0 129 -2 139c-4 27 -20 36 -49 38c-9 1 -11 4 -11 8c0 7 8 9 15 9c19 1 101 3 118 3c1 -11 2 -23 2 -39
c0 -10 -1 -20 -2 -40l2 -2c23 32 62 72 129 72c98 0 181 -93 181 -208c0 -127 -103 -203 -202 -203c-52 0 -85 18 -110 32c-6 -40 -9 -91 -9 -132c0 -18 1 -81 8 -94c9 -17 28 -26 46 -30c12 -2 13 -4 15 -11zM154 200c0 -25 0 -96 4 -112c12 -50 57 -70 103 -70
c83 0 132 82 132 177c0 99 -50 184 -127 184c-56 0 -84 -35 -98 -75s-14 -85 -14 -104z" />
    <glyph glyph-name="q" unicode="q" horiz-adv-x="510" 
d="M468 -221h-167c-14 0 -20 0 -20 8s8 9 14 9c35 0 56 7 56 78c0 44 0 118 -2 160c-38 -22 -80 -34 -124 -34c-131 0 -194 124 -194 206c0 93 80 214 198 214c45 0 95 -11 152 -50c11 17 20 45 29 45c11 0 9 -12 9 -22c0 -30 -2 -153 -2 -179c0 -68 0 -332 7 -377
c6 -36 29 -40 52 -40c11 0 21 0 21 -9s-12 -9 -29 -9zM247 18c36 0 69 23 82 39c21 26 22 68 22 102c0 39 0 135 -13 172c-12 34 -39 71 -94 71c-97 0 -129 -125 -129 -193c0 -36 11 -191 132 -191z" />
    <glyph glyph-name="r" unicode="r" horiz-adv-x="396" 
d="M204 0h-156c-7 0 -17 0 -17 9c0 6 3 7 30 9c34 4 38 16 38 145c0 219 -2 219 -62 226c-2 0 -11 1 -11 9s9 9 13 9c20 2 107 6 124 7c2 -14 7 -89 7 -106h2c58 106 119 110 138 110c38 0 66 -31 66 -63c0 -17 -6 -46 -39 -46c-19 0 -24 10 -35 32c-5 10 -19 26 -38 26
c-32 0 -64 -37 -79 -70c-8 -19 -15 -34 -15 -153c0 -26 0 -100 11 -113c8 -10 17 -11 37 -13c8 -1 9 -4 9 -7c0 -11 -13 -11 -23 -11z" />
    <glyph glyph-name="s" unicode="s" horiz-adv-x="396" 
d="M348 129c0 -88 -78 -138 -143 -138c-33 0 -45 6 -101 32c-2 1 -6 2 -10 2c-8 0 -10 -3 -19 -18c-3 -4 -7 -6 -11 -6c-6 0 -6 5 -7 11c-1 14 -4 108 -4 126c0 5 2 13 10 13c4 0 5 -2 10 -13c18 -44 54 -130 132 -130c31 0 84 20 84 76c0 51 -69 84 -93 95
c-90 40 -132 59 -132 126c0 69 60 118 131 118c36 0 59 -11 69 -15c3 -2 28 -14 32 -14c5 0 6 2 15 13c1 2 3 3 5 3c9 0 9 -10 10 -18c4 -46 5 -86 5 -94c0 -6 0 -15 -8 -15c-6 0 -9 6 -12 14c-6 22 -37 78 -51 89c-17 12 -39 19 -61 19c-41 0 -79 -22 -79 -62
c0 -42 29 -55 119 -96c54 -24 109 -49 109 -118z" />
    <glyph glyph-name="t" unicode="t" horiz-adv-x="344" 
d="M187 414h117c15 0 15 0 19 -6c-1 -19 -2 -20 -8 -26c-27 0 -37 -1 -128 -8c-5 -84 -7 -208 -7 -211c0 -54 0 -129 73 -129c27 0 41 8 51 14c17 10 18 12 21 12s6 -2 6 -7c0 -7 -39 -63 -120 -63c-97 0 -100 94 -100 141c0 37 4 147 9 243c-13 2 -79 6 -81 7s-5 3 -5 6
c0 5 3 6 16 12c77 35 112 85 119 142c1 8 3 17 11 17c9 0 9 -10 9 -14c0 -8 -2 -45 -2 -53c0 -12 1 -66 0 -77z" />
    <glyph glyph-name="u" unicode="u" horiz-adv-x="510" 
d="M323 410h98c5 -59 4 -105 4 -160c0 -50 -6 -159 0 -188c6 -31 2 -37 27 -41c19 -3 22 -4 22 -11c0 -9 -9 -9 -25 -9h-77c-9 0 -20 0 -20 12c0 15 3 51 0 77c-27 -35 -77 -96 -160 -96c-23 0 -89 5 -101 85c-5 35 -9 218 -9 265c0 39 0 46 -25 48c-15 1 -19 2 -19 10
s6 8 23 8h90c3 -50 3 -271 10 -315c8 -49 48 -67 72 -67c30 0 84 28 105 76c13 29 17 90 17 142c0 91 14 144 -46 147c-3 0 -11 1 -11 8c0 9 6 9 25 9z" />
    <glyph glyph-name="v" unicode="v" 
d="M350 412h124c4 -1 9 -3 9 -10c0 -6 -2 -6 -22 -9c-45 -7 -58 -41 -113 -183c-20 -52 -76 -183 -97 -218h-5c-27 45 -68 142 -88 185c-30 65 -82 187 -102 207c-4 4 -11 8 -28 11c-6 1 -11 3 -11 9c0 10 11 10 14 10l156 -1c4 0 13 0 13 -9c0 -7 -2 -8 -25 -12
c-18 -3 -18 -19 -18 -24c0 -34 109 -263 119 -282c17 38 105 236 105 284c0 20 -18 23 -22 24c-16 1 -21 1 -21 9c0 7 6 9 12 9z" />
    <glyph glyph-name="w" unicode="w" horiz-adv-x="719" 
d="M368 289l-3 -3c-17 -49 -63 -163 -89 -227c-13 -33 -23 -65 -33 -68h-7c-29 68 -69 163 -77 184c-24 63 -68 174 -91 200c-10 11 -15 11 -33 13c-8 1 -10 4 -10 9c0 9 12 10 16 10c9 1 111 2 125 2c45 0 52 0 52 -8c0 -10 -11 -12 -19 -13c-13 -2 -36 -9 -36 -24
c0 -26 31 -96 105 -268c20 46 84 196 84 230c0 26 -21 59 -39 61c-23 3 -25 3 -25 10c0 12 12 13 111 13c9 0 54 0 59 -2c3 0 8 -3 8 -8c0 -6 -3 -7 -24 -14c-7 -2 -22 -11 -22 -26c0 -6 1 -9 13 -41c13 -35 78 -186 91 -217c28 71 87 234 87 260c0 8 -5 26 -26 28
c-14 1 -23 3 -23 12c0 6 5 7 11 7c2 1 65 2 70 2c8 0 40 -1 46 -3c4 -1 5 -3 5 -6c0 -6 -3 -8 -32 -20s-45 -71 -52 -97c-15 -54 -65 -186 -109 -294h-7c-17 31 -40 86 -63 143c-24 57 -49 116 -63 155z" />
    <glyph glyph-name="x" unicode="x" horiz-adv-x="531" 
d="M61 410h156c17 0 25 0 25 -9c0 -8 -7 -11 -21 -13c-29 -4 -32 -5 -32 -14c0 -6 5 -14 8 -20c12 -18 24 -34 79 -111c22 30 43 60 63 91c6 9 11 16 11 29s-11 22 -24 25c-20 3 -24 4 -24 11c0 10 10 11 32 11h107c12 0 22 0 22 -9c0 -10 -11 -11 -15 -11
c-24 0 -42 -5 -55 -20c-19 -21 -90 -122 -105 -143c19 -25 101 -133 119 -155c10 -14 38 -49 85 -52c6 0 15 -2 15 -9c0 -11 -4 -11 -38 -11h-156c-26 0 -30 4 -30 10s2 6 27 11c15 4 26 10 26 21c0 6 -1 9 -14 27c-42 65 -43 59 -80 108c-7 -11 -58 -79 -75 -110
c-2 -4 -8 -15 -8 -24c0 -21 24 -24 45 -25c6 0 17 -2 17 -9c0 -9 -7 -9 -29 -9h-131c-16 0 -27 1 -27 10c0 6 2 6 25 11c47 10 66 23 105 81c45 67 49 67 65 91c-23 29 -124 170 -144 183c-9 6 -27 10 -52 14c-11 2 -11 10 -11 11c0 5 3 7 8 8c9 1 19 1 31 1z" />
    <glyph glyph-name="y" unicode="y" 
d="M43 415h11c12 -2 46 -2 78 -2c38 0 70 2 96 3c4 0 12 -2 12 -9s-3 -8 -32 -16c-15 -4 -28 -18 -28 -34c0 -23 26 -84 111 -285c46 125 64 178 77 225c2 10 7 31 7 55c0 25 -15 41 -51 45c-9 0 -14 2 -14 9c0 6 4 8 11 8c9 0 61 -1 70 -1c15 0 74 2 88 2c6 0 12 -2 12 -8
c0 -8 -6 -9 -17 -12c-42 -9 -59 -55 -90 -138c-19 -50 -96 -273 -114 -318c-31 -78 -80 -204 -179 -204c-53 0 -82 38 -82 67c0 26 26 46 45 46c38 0 42 -26 44 -46c2 -13 10 -20 24 -20c57 0 121 150 121 188c0 36 -27 101 -83 236c-53 128 -81 186 -107 190
c-17 3 -23 3 -23 10c0 5 4 9 13 9z" />
    <glyph glyph-name="z" unicode="z" horiz-adv-x="448" 
d="M294 415l63 -2c12 0 18 -2 18 -9c0 -5 -1 -8 -7 -18c-53 -88 -144 -227 -199 -314c-14 -22 -18 -33 -28 -53l105 -1c46 0 59 9 82 31c12 11 56 80 67 80c5 0 8 -4 8 -8c0 -3 -25 -109 -28 -121c-80 -1 -160 0 -240 1c-11 0 -61 -2 -71 -2c-8 0 -15 4 -15 10
c0 14 99 164 106 174c40 57 47 70 114 187c3 5 10 14 14 22c-13 1 -38 2 -52 2c-67 0 -98 -8 -134 -51c-7 -8 -31 -49 -40 -49c-3 0 -8 1 -8 8c0 0 8 27 9 29c6 20 12 44 22 80c26 2 40 3 82 3c44 0 116 0 132 1z" />
    <glyph glyph-name="braceleft" unicode="{" horiz-adv-x="479" 
d="M393 -238v-17c-118 16 -183 107 -183 190c0 9 1 37 10 76c2 6 12 51 12 75c0 34 -26 93 -111 104v20c86 12 111 71 111 105c0 24 -11 69 -12 75c-9 38 -10 65 -10 76c0 80 63 173 183 189v-17c-62 -15 -110 -50 -110 -116c0 -15 4 -45 12 -76c3 -15 10 -47 10 -76
c0 -31 -14 -123 -144 -168v-2c102 -36 144 -110 144 -169c0 -29 -7 -62 -10 -76c-7 -31 -12 -61 -12 -77c0 -65 48 -100 110 -116z" />
    <glyph glyph-name="bar" unicode="|" 
d="M228 750h44v-1000h-44v1000z" />
    <glyph glyph-name="braceright" unicode="}" horiz-adv-x="479" 
d="M86 -238c62 16 110 51 110 116c0 16 -5 46 -12 77c-3 14 -10 47 -10 76c0 59 42 133 144 169v2c-130 45 -144 137 -144 168c0 29 7 61 10 76c8 31 12 61 12 76c0 66 -48 101 -110 116v17c120 -16 183 -109 183 -189c0 -11 -1 -38 -10 -76c-1 -6 -12 -51 -12 -75
c0 -34 25 -93 111 -105v-20c-85 -11 -111 -70 -111 -104c0 -24 10 -69 12 -75c9 -39 10 -67 10 -76c0 -83 -65 -174 -183 -190v17z" />
    <glyph glyph-name="asciitilde" unicode="~" horiz-adv-x="667" 
d="M572 357h21c-1 -85 -55 -133 -118 -133c-27 0 -44 3 -128 37c-112 46 -131 53 -161 53c-73 0 -87 -68 -91 -89h-21c6 133 105 133 113 133c44 0 131 -36 185 -60c74 -31 92 -32 109 -32c31 0 83 14 91 91z" />
    <glyph glyph-name="exclamdown" unicode="&#xa1;" horiz-adv-x="219" 
d="M110 -244c-47 0 -49 55 -49 68c0 19 40 333 40 396c0 27 0 30 10 30c9 0 13 0 13 -8c0 -86 12 -211 21 -298c2 -19 12 -120 12 -127c0 -36 -21 -61 -47 -61zM109 319c-26 0 -48 21 -48 48s22 48 48 48c27 0 48 -21 48 -48s-21 -48 -48 -48z" />
    <glyph glyph-name="cent" unicode="&#xa2;" horiz-adv-x="417" 
d="M334 557l18 -6l-50 -146c31 -11 77 -28 77 -78c0 -22 -13 -36 -32 -36c-7 0 -17 1 -27 14c-7 9 -25 56 -30 65l-110 -321c15 -12 36 -31 72 -31c46 0 105 37 116 102c2 10 3 14 10 14c6 0 9 -5 9 -10c0 -38 -34 -133 -162 -133c-27 0 -41 4 -61 11l-50 -147l-18 6l51 147
c-84 44 -114 122 -114 187c0 98 68 224 197 224c24 0 40 -4 55 -7zM165 63l110 323c-12 7 -26 15 -50 15c-108 0 -110 -152 -110 -175c0 -58 15 -116 50 -163z" />
    <glyph glyph-name="sterling" unicode="&#xa3;" horiz-adv-x="833" 
d="M433 199l200 16c18 0 23 1 23 -13c0 -12 -5 -13 -19 -14l-210 -17c-30 -93 -49 -128 -90 -178c35 -11 129 -42 224 -42c74 0 163 31 169 82c0 7 1 16 9 16s8 -9 8 -15c0 -130 -115 -154 -166 -154c-39 0 -63 7 -147 39c-66 25 -88 34 -120 48c-75 -69 -140 -83 -178 -83
c-54 0 -113 29 -113 80c0 44 53 75 110 75c3 0 74 -1 159 -32c13 33 29 74 45 158l-186 -14c-16 -1 -19 -1 -19 16c0 9 2 10 19 11l191 15c42 232 56 305 133 392c22 24 75 79 165 79c87 0 174 -74 174 -162c0 -92 -68 -162 -135 -162c-27 0 -67 17 -67 28c0 5 4 8 8 8
c3 0 7 -1 16 -5c18 -8 27 -13 42 -13c44 0 86 39 86 133c0 121 -73 155 -128 155c-120 0 -144 -102 -160 -180c-18 -86 -18 -92 -38 -238c-1 -4 -4 -24 -5 -29zM280 -18c-29 14 -83 38 -135 38c-36 0 -77 -18 -77 -63c0 -41 34 -55 68 -55c60 0 112 29 144 80z" />
    <glyph glyph-name="fraction" unicode="&#x2044;" horiz-adv-x="31" 
d="M207 665h31l-413 -675h-32z" />
    <glyph glyph-name="yen" unicode="&#xa5;" horiz-adv-x="708" 
d="M487 633h184c14 0 26 0 26 -10c0 -8 -7 -8 -12 -8c-66 0 -89 -30 -189 -165c-84 -113 -91 -120 -91 -152h244v-29h-247c-2 -35 -1 -64 -1 -93h248v-29h-248c0 -29 0 -72 7 -93c9 -26 43 -36 54 -37c32 -3 36 -4 36 -12c0 -10 -15 -10 -17 -10c-11 0 -42 3 -73 4
c-30 1 -60 1 -71 1c-7 0 -28 -2 -49 -3c-20 -1 -41 -2 -48 -2c-6 0 -18 1 -18 10c0 7 6 8 13 8c58 3 79 40 79 134h-259v29h258c0 21 -3 67 -8 93h-250v29h240c-37 58 -160 262 -220 302c-16 11 -24 12 -48 16c-3 0 -11 1 -11 8c0 9 8 9 33 9h227c8 0 17 0 17 -9
c0 -7 -6 -8 -24 -10c-50 -6 -50 -32 -50 -36c0 -19 21 -50 31 -64c41 -58 86 -122 128 -180c38 41 85 110 125 168c20 30 34 51 34 69c0 37 -52 44 -61 44s-17 0 -17 9s10 9 28 9z" />
    <glyph glyph-name="florin" unicode="&#x192;" horiz-adv-x="708" 
d="M346 25c-25 -107 -62 -291 -247 -291c-49 0 -99 12 -99 61c0 36 27 48 42 48c19 0 23 -15 31 -48c8 -31 26 -43 53 -43c55 0 90 34 120 135c13 45 106 434 116 482c-10 0 -54 2 -60 3s-12 3 -12 9c0 2 7 23 19 26c10 3 53 5 63 5c16 73 55 254 237 254
c49 0 99 -12 99 -61c0 -36 -27 -48 -42 -48c-19 0 -23 15 -31 48c-8 31 -26 43 -53 43c-59 0 -81 -41 -98 -75c-30 -61 -41 -126 -46 -161c17 1 45 -2 62 -1c6 0 33 2 33 -12c0 -1 -8 -27 -28 -29c-3 0 -39 -3 -78 -1c-6 -23 -40 -169 -81 -344z" />
    <glyph glyph-name="section" unicode="&#xa7;" horiz-adv-x="469" 
d="M154 393c-13 24 -42 78 -42 137c0 79 51 138 128 138c61 0 114 -38 114 -92c0 -48 -39 -61 -53 -61c-22 0 -38 18 -38 37c0 13 7 22 17 30c20 16 22 21 22 28c0 24 -36 36 -59 36c-40 0 -84 -29 -84 -92c0 -64 38 -123 113 -212c130 -156 152 -182 152 -242
c0 -75 -56 -88 -106 -100c16 -27 47 -80 47 -132c0 -64 -44 -134 -133 -134c-76 0 -108 55 -108 90c0 28 26 60 56 60c21 0 40 -16 40 -36c0 -14 -6 -18 -19 -29c-3 -3 -17 -15 -17 -28c0 -3 0 -37 52 -37c78 0 84 64 84 76c0 69 -59 146 -165 262c-71 78 -110 129 -110 203
c0 62 37 91 109 98zM305 23c25 1 76 2 76 52c0 40 -19 61 -113 172c-94 110 -104 122 -136 122c-17 0 -49 -12 -49 -49c0 -28 17 -60 55 -109c83 -108 130 -153 167 -188z" />
    <glyph glyph-name="currency" unicode="&#xa4;" horiz-adv-x="677" 
d="M476 458l61 61l30 -31l-61 -60c19 -26 49 -67 49 -140c0 -68 -26 -103 -49 -135l61 -61l-30 -30l-61 61c-27 -20 -67 -50 -138 -50s-111 30 -137 49l-62 -60l-30 30l61 60c-19 27 -49 67 -49 138s30 111 49 138l-61 60l30 31l62 -60c27 20 67 48 137 48s110 -29 138 -49z
M512 290c0 96 -78 174 -174 174s-174 -78 -174 -174c0 -95 78 -174 174 -174s174 79 174 174z" />
    <glyph glyph-name="quotesingle" unicode="'" horiz-adv-x="177" 
d="M77 369l-26 145c-10 54 -11 60 -11 80c0 13 0 60 47 60c21 0 51 -12 51 -53c0 -17 -2 -28 -13 -88l-27 -144h-21z" />
    <glyph glyph-name="quotedblleft" unicode="&#x201c;" horiz-adv-x="354" 
d="M105 457c-30 0 -58 22 -58 58c0 75 109 133 115 133c9 0 9 -7 9 -9c0 -4 -4 -8 -13 -15c-37 -29 -58 -48 -58 -70c0 -12 11 -18 23 -24c7 -3 25 -12 25 -35c0 -18 -15 -38 -43 -38zM273 457c-30 0 -58 22 -58 58c0 75 109 133 115 133c9 0 9 -7 9 -9c0 -4 -4 -8 -13 -15
c-37 -29 -58 -48 -58 -70c0 -12 11 -18 23 -24c7 -3 25 -12 25 -35c0 -18 -15 -38 -43 -38z" />
    <glyph glyph-name="guillemotleft" unicode="&#xab;" horiz-adv-x="510" 
d="M467 396h2c1 0 9 -1 9 -4c0 -4 -104 -157 -123 -188c25 -37 106 -157 117 -174c6 -9 6 -10 6 -12c0 -4 -12 -3 -16 -2c-12 9 -21 18 -109 101c-73 68 -82 76 -93 87c32 31 198 191 207 192zM239 396h2c1 0 9 -1 9 -4c0 -4 -104 -157 -123 -188c25 -37 106 -157 117 -174
c6 -9 6 -10 6 -12c0 -4 -12 -3 -16 -2c-12 9 -21 18 -109 101c-73 68 -82 76 -93 87c32 31 198 191 207 192z" />
    <glyph glyph-name="guilsinglleft" unicode="&#x2039;" horiz-adv-x="281" 
d="M233 396h2c1 0 9 -1 9 -4c0 -4 -104 -157 -123 -188c25 -37 106 -157 117 -174c6 -9 6 -10 6 -12c0 -4 -12 -3 -16 -2c-12 9 -21 18 -109 101c-73 68 -82 76 -93 87c32 31 198 191 207 192z" />
    <glyph glyph-name="guilsinglright" unicode="&#x203a;" horiz-adv-x="281" 
d="M48 396c9 -1 175 -161 207 -192c-11 -11 -20 -19 -93 -87c-88 -83 -97 -92 -109 -101c-4 -1 -16 -2 -16 2c0 2 0 3 6 12c11 17 92 137 117 174c-19 31 -123 184 -123 188c0 3 8 4 9 4h2z" />
    <glyph glyph-name="fi" unicode="&#xfb01;" horiz-adv-x="552" 
d="M285 409c35 0 56 1 89 4c9 1 70 12 83 14c-7 -55 -7 -61 -8 -199l-1 -111c-1 -73 8 -97 28 -99c26 -1 29 -1 29 -9s-9 -10 -21 -10l-69 1c-14 0 -87 -2 -92 0c-6 2 -8 5 -8 9c0 8 6 8 25 9c22 1 38 14 38 84c0 43 2 200 -6 263c-30 18 -60 13 -95 13c-31 0 -56 -2 -88 -3
c-6 -47 -6 -174 -6 -227c0 -110 7 -130 59 -133c7 0 15 -1 15 -9c0 -10 -10 -10 -23 -10c-12 2 -26 3 -40 4s-28 1 -42 1c-27 0 -55 -2 -80 -5c-8 0 -16 0 -16 9c0 8 3 8 25 10c26 2 30 25 30 61c0 22 2 123 2 143l-1 160c-8 -1 -42 -1 -49 -1c-3 0 -16 -3 -18 -3
c-6 0 -8 6 -8 13c0 13 2 16 10 17c18 2 47 3 65 4c4 112 30 262 196 262c82 0 139 -41 139 -85c0 -24 -21 -43 -44 -43c-24 0 -29 14 -43 50c-8 21 -31 55 -74 55c-36 0 -72 -21 -89 -71c-17 -51 -17 -121 -13 -167c37 -2 67 -2 101 -1z" />
    <glyph glyph-name="fl" unicode="&#xfb02;" horiz-adv-x="552" 
d="M502 -5c-28 2 -54 5 -80 5c-13 0 -26 -1 -39 -2c-14 -2 -27 -3 -40 -3c-8 0 -17 0 -17 9c0 7 8 8 16 9c39 5 42 27 46 70c6 64 7 222 6 296c-22 2 -56 5 -126 5c-31 0 -54 0 -86 -1c-6 -47 -7 -183 -7 -236c0 -110 7 -130 59 -133c7 0 15 -1 15 -9c0 -10 -10 -10 -23 -10
c-12 2 -26 3 -40 4s-28 1 -42 1c-27 0 -55 -2 -80 -5c-8 0 -16 0 -16 9c0 8 3 8 25 10c26 2 30 25 30 61c0 22 2 123 2 143v170c-8 -1 -42 -1 -49 -1c-3 0 -16 -3 -18 -3c-6 0 -8 6 -8 13c0 13 2 16 10 17c18 2 47 3 65 4c4 112 29 252 195 252c8 0 30 -2 51 -3
c22 -1 44 -4 51 -4c19 0 42 2 65 4c-1 -80 -7 -433 -7 -505c0 -30 0 -114 11 -132c8 -15 20 -16 43 -17c2 -1 10 -1 10 -9c0 -9 -12 -9 -22 -9zM394 416l2 88c1 62 -8 88 -33 114c-21 21 -48 32 -74 32c-36 0 -75 -23 -92 -73c-17 -51 -14 -125 -13 -158c42 2 47 2 210 -3z
" />
    <glyph glyph-name="endash" unicode="&#x2013;" 
d="M-6 273h512v-46h-512v46z" />
    <glyph glyph-name="dagger" unicode="&#x2020;" horiz-adv-x="688" 
d="M361 -243h-18c-11 147 -32 442 -43 495c-4 20 -16 79 -50 79c-15 0 -21 -6 -57 -48c-15 -17 -43 -28 -67 -28c-48 0 -85 35 -85 75c0 20 10 52 40 52c24 0 37 -23 37 -37c0 -27 -24 -32 -35 -35c3 -8 8 -27 28 -27c11 0 24 8 51 47c16 25 31 47 63 47c15 0 34 -4 62 -36
c24 -29 27 -32 41 -47l2 2c-6 18 -38 121 -38 170c0 22 11 58 28 77c16 18 17 20 17 24s-2 6 -19 25c-7 6 -13 20 -13 30c0 22 19 45 47 45c18 0 42 -13 42 -38c0 -16 -8 -32 -23 -41c-2 -2 -16 -11 -16 -14s12 -16 13 -18c21 -23 41 -56 41 -91c0 -16 -2 -32 -6 -47
c-26 -89 -29 -99 -34 -122l2 -2c8 10 50 58 61 65c16 11 29 12 37 12c11 0 32 0 58 -39c23 -33 33 -48 53 -48c16 0 23 13 27 26c-14 2 -39 4 -39 36c0 15 12 39 37 39c27 0 42 -27 42 -54c0 -47 -45 -75 -85 -75c-42 0 -65 25 -91 53c-6 7 -17 18 -29 18
c-38 0 -50 -100 -51 -109c-8 -67 -10 -107 -30 -461z" />
    <glyph glyph-name="daggerdbl" unicode="&#x2021;" horiz-adv-x="521" 
d="M269 237h-15c-9 77 -12 94 -35 246c-10 -7 -22 -17 -43 -17c-24 0 -42 21 -52 37s-11 18 -14 18s-5 -3 -5 -5c0 -3 5 -15 5 -17c0 -14 -13 -30 -32 -30c-16 0 -35 14 -35 38c0 30 29 47 51 47c18 0 37 -10 55 -33c21 -27 24 -30 36 -30c25 0 29 22 33 47c2 12 7 26 16 31
c14 10 16 11 16 14c0 4 -16 18 -18 21c-5 7 -7 14 -7 23c0 32 26 38 37 38c15 0 37 -12 37 -37c0 -14 -7 -24 -15 -32c-8 -7 -10 -9 -10 -12c0 -5 19 -21 21 -25c4 -8 13 -48 17 -55c5 -7 14 -12 21 -12c10 0 17 3 39 30c19 24 37 33 56 33c29 0 50 -22 50 -46
c0 -23 -18 -40 -35 -40c-9 0 -30 7 -30 34l1 14c-1 2 -3 3 -4 3c-7 0 -9 -4 -17 -20c-9 -16 -23 -35 -46 -35c-21 0 -35 12 -43 18c-5 -31 -25 -169 -29 -197c-3 -19 -4 -32 -6 -49zM254 165h15c6 -39 30 -212 35 -248c12 9 26 21 44 21s26 -12 47 -43c6 -9 9 -14 14 -14
c3 0 4 3 4 5c0 16 0 45 29 45c19 0 36 -17 36 -40c0 -30 -28 -45 -50 -45c-28 0 -40 14 -70 49c-6 7 -13 12 -25 12c-22 0 -25 -17 -28 -34c-3 -15 -10 -32 -18 -40c-10 -9 -11 -10 -11 -14s1 -6 14 -23c4 -7 8 -16 8 -26c0 -18 -15 -36 -35 -36c-19 0 -40 12 -40 39
c0 2 0 15 8 24c14 16 15 17 15 21c0 5 -19 20 -21 24c-4 8 -11 46 -15 53c-7 13 -19 14 -23 14c-11 0 -21 -3 -40 -29c-24 -32 -40 -34 -53 -34c-21 0 -51 13 -51 46c0 31 28 40 37 40c15 0 28 -13 28 -28c0 -3 -3 -17 -3 -19c0 -1 1 -5 4 -5s16 19 20 24c12 18 28 32 50 32
c20 0 29 -9 38 -19c15 76 16 86 37 248z" />
    <glyph glyph-name="periodcentered" unicode="&#xb7;" horiz-adv-x="219" 
d="M111 308c27 0 47 -21 47 -47c0 -27 -21 -49 -47 -49c-27 0 -49 21 -49 49c0 27 22 47 49 47z" />
    <glyph glyph-name="paragraph" unicode="&#xb6;" horiz-adv-x="719" 
d="M363 -234v356c-39 -2 -101 -6 -167 34c-81 49 -105 138 -105 204c0 123 74 230 202 256c55 11 96 15 327 17v-17c-77 -22 -81 -37 -81 -97v-753h-38v840c-21 2 -61 2 -102 -11v-829h-36z" />
    <glyph glyph-name="bullet" unicode="&#x2022;" horiz-adv-x="354" 
d="M300 331c0 -68 -55 -123 -123 -123c-67 0 -122 55 -122 123c0 67 55 122 122 122c68 0 123 -55 123 -122z" />
    <glyph glyph-name="quotesinglbase" unicode="&#x201a;" horiz-adv-x="208" 
d="M94 62c30 0 58 -22 58 -58c0 -75 -109 -133 -115 -133c-9 0 -9 7 -9 9c0 4 4 8 13 15c37 29 58 48 58 70c0 12 -11 18 -23 24c-7 3 -25 12 -25 35c0 18 15 38 43 38z" />
    <glyph glyph-name="quotedblbase" unicode="&#x201e;" horiz-adv-x="385" 
d="M249 62c30 0 58 -22 58 -58c0 -75 -109 -133 -115 -133c-9 0 -9 7 -9 9c0 4 4 8 13 15c37 29 58 48 58 70c0 12 -11 18 -23 24c-7 3 -25 12 -25 35c0 18 15 38 43 38zM81 62c30 0 58 -22 58 -58c0 -75 -109 -133 -115 -133c-9 0 -9 7 -9 9c0 4 4 8 13 15
c37 29 58 48 58 70c0 12 -11 18 -23 24c-7 3 -25 12 -25 35c0 18 15 38 43 38z" />
    <glyph glyph-name="quotedblright" unicode="&#x201d;" horiz-adv-x="354" 
d="M249 648c30 0 58 -22 58 -58c0 -75 -109 -133 -115 -133c-9 0 -9 7 -9 9c0 4 4 8 13 15c37 29 58 48 58 70c0 12 -11 18 -23 24c-7 3 -25 12 -25 35c0 18 15 38 43 38zM81 648c30 0 58 -22 58 -58c0 -75 -109 -133 -115 -133c-9 0 -9 7 -9 9c0 4 4 8 13 15
c37 29 58 48 58 70c0 12 -11 18 -23 24c-7 3 -25 12 -25 35c0 18 15 38 43 38z" />
    <glyph glyph-name="guillemotright" unicode="&#xbb;" horiz-adv-x="510" 
d="M43 396c9 -1 175 -161 207 -192c-11 -11 -20 -19 -93 -87c-88 -83 -97 -92 -109 -101c-4 -1 -16 -2 -16 2c0 2 0 3 6 12c11 17 92 137 117 174c-19 31 -123 184 -123 188c0 3 8 4 9 4h2zM271 396c9 -1 175 -161 207 -192c-11 -11 -20 -19 -93 -87
c-88 -83 -97 -92 -109 -101c-4 -1 -16 -2 -16 2c0 2 0 3 6 12c11 17 92 137 117 174c-19 31 -123 184 -123 188c0 3 8 4 9 4h2z" />
    <glyph glyph-name="ellipsis" unicode="&#x2026;" horiz-adv-x="1000" 
d="M500 90c26 0 48 -21 48 -48s-22 -48 -48 -48c-27 0 -48 22 -48 48s21 48 48 48zM167 90c26 0 48 -21 48 -48s-22 -48 -48 -48c-27 0 -48 22 -48 48s21 48 48 48zM833 90c27 0 48 -21 48 -48s-21 -48 -48 -48s-48 22 -48 48s22 48 48 48z" />
    <glyph glyph-name="perthousand" unicode="&#x2030;" horiz-adv-x="1063" 
d="M879 316c64 0 144 -57 144 -164c0 -115 -84 -166 -144 -166c-70 0 -145 62 -145 162c0 90 61 168 145 168zM885 298c-91 0 -91 -132 -91 -156c0 -106 49 -138 83 -138c61 0 86 77 86 156c0 110 -52 138 -78 138zM532 316c64 0 143 -57 143 -164
c0 -115 -83 -166 -144 -166c-70 0 -145 62 -145 162c0 90 61 168 146 168zM536 298c-90 0 -90 -132 -90 -156c0 -106 48 -138 82 -138c61 0 87 77 87 156c0 110 -53 138 -79 138zM186 652c64 0 143 -57 143 -164c0 -115 -83 -166 -144 -166c-70 0 -145 62 -145 162
c0 90 61 168 146 168zM190 634c-90 0 -90 -132 -90 -156c0 -106 48 -138 82 -138c61 0 87 77 87 156c0 110 -53 138 -79 138zM545 650h31l-399 -662h-30z" />
    <glyph glyph-name="questiondown" unicode="&#xbf;" horiz-adv-x="427" 
d="M335 40c-30 24 -56 46 -90 46c-66 0 -112 -91 -112 -169c0 -97 63 -146 115 -146c11 0 45 2 45 30c0 4 -2 22 -2 25c0 29 20 45 41 45c19 0 43 -12 43 -45c0 -60 -83 -73 -123 -73c-103 0 -192 85 -192 188c0 99 74 173 159 173c42 0 68 -16 87 -28c2 28 8 119 8 146
c0 12 0 16 13 16c10 0 11 -3 11 -13c0 -65 0 -150 -3 -195zM318 319c-27 0 -48 22 -48 48c0 27 22 48 48 48c27 0 48 -21 48 -48c0 -26 -21 -48 -48 -48z" />
    <glyph glyph-name="grave" unicode="`" horiz-adv-x="333" 
d="M213 461l-116 88c-35 26 -48 43 -48 61c0 12 9 31 32 31c28 0 44 -24 65 -53l76 -106c12 -18 14 -20 14 -24c0 -3 -5 -6 -7 -6c-4 0 -14 7 -16 9z" />
    <glyph glyph-name="acute" unicode="&#xb4;" horiz-adv-x="333" 
d="M120 461c-2 -2 -12 -9 -16 -9c-2 0 -7 3 -7 6c0 4 1 6 14 24l76 106c21 29 37 53 65 53c23 0 32 -19 32 -31c0 -18 -13 -35 -48 -61z" />
    <glyph glyph-name="circumflex" unicode="&#x2c6;" horiz-adv-x="333" 
d="M139 652h54l89 -159c4 -8 12 -23 12 -25c0 -4 -4 -8 -7 -8c-4 0 -7 2 -14 10l-106 110l-97 -100c-7 -7 -19 -20 -23 -20c-6 0 -8 5 -8 7c0 5 1 6 14 30z" />
    <glyph glyph-name="tilde" unicode="&#x2dc;" horiz-adv-x="333" 
d="M115 569c13 0 27 -2 59 -22c31 -20 46 -23 59 -23c23 0 40 15 43 37c1 6 1 7 16 7c6 0 7 -1 7 -9c0 -42 -25 -100 -81 -100c-24 0 -29 3 -81 35c-11 7 -21 12 -36 12c-23 0 -42 -16 -45 -35c-1 -10 -1 -12 -12 -12c-7 0 -10 1 -10 8s8 102 81 102z" />
    <glyph glyph-name="macron" unicode="&#xaf;" horiz-adv-x="333" 
d="M30 520h273v-47h-273v47z" />
    <glyph glyph-name="breve" unicode="&#x2d8;" horiz-adv-x="333" 
d="M161 518c19 0 90 0 114 67c2 4 6 5 11 5c9 0 9 -4 9 -7c0 -25 -19 -124 -128 -124c-105 0 -129 97 -129 122c0 8 3 8 10 8c8 0 9 -2 10 -5c21 -48 61 -66 103 -66z" />
    <glyph glyph-name="dotaccent" unicode="&#x2d9;" horiz-adv-x="333" 
d="M166 562c24 0 45 -19 45 -45s-21 -45 -45 -45c-23 0 -45 19 -45 45s22 45 45 45z" />
    <glyph glyph-name="dieresis" unicode="&#xa8;" horiz-adv-x="333" 
d="M74 562c24 0 45 -19 45 -45s-21 -45 -45 -45s-45 19 -45 45s22 45 45 45zM259 562c23 0 45 -19 45 -45s-21 -45 -45 -45s-45 19 -45 45s21 45 45 45z" />
    <glyph glyph-name="ring" unicode="&#x2da;" horiz-adv-x="333" 
d="M166 627c44 0 79 -36 79 -79s-35 -79 -79 -79c-43 0 -78 36 -78 79c0 44 35 79 78 79zM166 597c-26 0 -48 -22 -48 -49s23 -49 48 -49c27 0 49 23 49 49s-21 49 -49 49z" />
    <glyph glyph-name="cedilla" unicode="&#xb8;" horiz-adv-x="333" 
d="M187 3h22c-7 -18 -9 -24 -18 -42c37 -7 67 -26 67 -65c0 -30 -22 -53 -38 -61c-32 -18 -93 -26 -129 -26c-3 0 -14 0 -14 10c0 8 9 9 18 10c41 5 90 12 90 52c0 17 -16 33 -43 35c12 23 32 61 45 87z" />
    <glyph glyph-name="hungarumlaut" unicode="&#x2dd;" horiz-adv-x="333" 
d="M237 461c-2 -2 -12 -9 -16 -9c-2 0 -7 3 -7 6c0 4 1 6 14 24l76 106c21 29 37 53 65 53c23 0 32 -19 32 -31c0 -18 -13 -35 -48 -61zM73 461c-2 -2 -12 -9 -16 -9c-2 0 -7 3 -7 6c0 4 1 6 14 24l76 106c21 29 37 53 65 53c23 0 32 -19 32 -31c0 -18 -13 -35 -48 -61z" />
    <glyph glyph-name="ogonek" unicode="&#x2db;" horiz-adv-x="333" 
d="M168 12h28c-24 -35 -43 -64 -43 -101c0 -50 33 -62 57 -62c14 0 21 3 38 9c3 1 7 2 10 2c4 0 9 -2 9 -9c0 -13 -66 -46 -105 -46c-47 0 -68 35 -68 65c0 59 53 119 74 142z" />
    <glyph glyph-name="caron" unicode="&#x2c7;" horiz-adv-x="333" 
d="M194 461h-54l-89 159c-4 8 -12 23 -12 25c0 4 4 8 7 8c4 0 7 -2 14 -10l106 -110l97 100c7 7 19 20 23 20c6 0 8 -5 8 -7c0 -5 -1 -6 -14 -30z" />
    <glyph glyph-name="emdash" unicode="&#x2014;" horiz-adv-x="1000" 
d="M-6 273h1012v-46h-1012v46z" />
    <glyph glyph-name="AE" unicode="&#xc6;" horiz-adv-x="1021" 
d="M853 -3h-135l-159 3l-135 -5c-8 0 -16 4 -16 9c0 9 13 10 18 10c63 0 70 53 74 104c4 52 3 137 2 200h-214c-59 -101 -112 -191 -112 -251c0 -39 26 -53 68 -53c4 -1 15 -1 15 -9c0 -9 -10 -10 -15 -10c-10 0 -38 3 -65 4c-28 1 -55 1 -64 1c-7 0 -27 -1 -46 -1
c-19 -1 -37 -3 -42 -3s-18 0 -18 9c0 5 3 8 14 9c67 6 114 91 151 157c81 145 145 267 179 336c5 10 23 50 23 70c0 37 -47 43 -85 43c-12 1 -23 1 -23 10s11 9 20 9h628c6 -19 41 -136 41 -149c0 -5 -3 -10 -9 -10c-3 0 -6 1 -10 8c-64 97 -114 130 -253 130
c-54 0 -72 -4 -93 -8c-5 -69 -6 -194 -6 -267c98 -2 142 -2 177 71c2 5 11 30 14 34c2 3 5 3 7 3c6 0 7 -8 7 -13c0 -7 -3 -37 -3 -44c0 -35 -1 -59 -1 -71c0 -63 2 -82 3 -103c1 -4 1 -4 1 -6c0 -7 -2 -15 -8 -15c-5 0 -9 5 -11 14c-9 41 -17 69 -61 92
c-29 15 -70 16 -125 16c-2 -60 -2 -83 -2 -108c0 -37 0 -111 10 -144c15 -51 109 -51 128 -51c124 0 193 31 245 128c8 14 8 16 14 16c5 0 9 -4 9 -10c0 -8 -15 -63 -18 -75c-16 -62 -14 -72 -16 -82c-14 -1 -23 2 -103 2zM502 348c0 103 0 207 -14 239c-7 17 -14 23 -29 23
c-21 0 -40 -33 -50 -50c-17 -29 -64 -117 -109 -212c29 0 170 -2 202 0z" />
    <glyph glyph-name="ordfeminine" unicode="&#xaa;" horiz-adv-x="302" 
d="M194 423c-16 -13 -35 -30 -79 -30c-52 0 -74 29 -74 59c0 51 50 68 67 74c76 23 88 27 88 55c0 37 -20 51 -45 51c-30 0 -34 -16 -39 -39c-4 -15 -14 -28 -31 -28c-13 0 -29 11 -29 28c0 23 28 57 103 57c96 0 96 -43 96 -79c0 -13 -2 -69 -2 -80c0 -25 0 -75 21 -75
c17 0 27 0 27 -8c0 -12 -53 -14 -66 -14c-19 0 -35 3 -37 29zM194 538c-10 -6 -62 -32 -72 -40c-18 -15 -21 -29 -21 -40c0 -21 13 -41 35 -41c19 0 41 11 52 34c10 20 8 64 6 87z" />
    <glyph glyph-name="Lslash" unicode="&#x141;" horiz-adv-x="615" 
d="M572 -5h-29c-60 0 -95 1 -138 3c-42 1 -92 2 -183 2h-69c-5 0 -28 -1 -50 -2s-43 -3 -46 -3c-29 0 -38 1 -38 9c0 7 11 9 15 9c33 2 80 8 91 70c2 12 6 61 7 138l-95 -109v39l95 109c0 17 6 249 -9 303c-8 28 -39 58 -88 62c-4 0 -10 2 -10 10s9 9 14 9c13 0 71 -4 85 -4
c33 -1 102 -1 114 -1l81 1c2 0 13 0 13 -9s-10 -9 -14 -9s-82 -1 -92 -59c-2 -8 -5 -49 -4 -78l-3 -126l2 -2l118 139v-39l-121 -138v-43c-1 -41 0 -153 3 -189c5 -65 58 -66 83 -66c101 0 156 1 237 103c9 11 30 39 42 67c4 12 8 13 12 13c7 0 9 -5 9 -12
c0 -12 -24 -166 -32 -197z" />
    <glyph glyph-name="Oslash" unicode="&#xd8;" horiz-adv-x="729" 
d="M157 61l-71 -81l-18 16l70 81c-65 63 -95 156 -95 233c0 162 132 340 330 340c49 0 125 -10 199 -72l68 79l19 -16l-69 -79c58 -58 96 -147 96 -229c0 -160 -134 -341 -336 -341c-53 0 -124 11 -193 69zM538 501l-336 -388c55 -94 145 -98 162 -98c158 0 214 196 214 312
c0 63 -15 123 -40 174zM191 137l335 387c-18 29 -65 102 -164 102c-139 0 -211 -160 -211 -298c0 -78 23 -151 40 -191z" />
    <glyph glyph-name="OE" unicode="&#x152;" horiz-adv-x="1094" 
d="M1025 0h-248c-28 0 -72 1 -83 1c-15 1 -105 7 -124 7c-34 0 -187 -12 -219 -12c-170 0 -305 134 -305 317c0 178 149 334 324 334c15 0 55 -3 95 -6c39 -3 79 -6 92 -6c11 0 39 2 68 4c28 2 57 3 66 3h304c13 -43 30 -138 30 -147s-5 -11 -8 -11s-7 5 -14 15
c-69 98 -103 122 -237 122c-58 0 -77 -4 -102 -9c-6 -87 -9 -176 -6 -263c33 -1 40 -2 48 -2c75 0 106 17 136 86c2 3 6 18 8 20c1 2 5 2 6 2c6 0 8 -5 8 -12c0 -4 0 -8 -1 -10c-4 -44 -5 -84 -5 -98c0 -18 4 -99 4 -118c0 -4 -1 -12 -8 -12c-8 0 -9 8 -10 12
c-2 20 -16 73 -61 93c-32 14 -84 15 -125 15c-2 -75 -2 -84 -2 -99c0 -162 0 -205 133 -205c64 0 198 6 250 134c2 4 6 12 13 12c5 0 7 -5 7 -10c0 -13 -29 -139 -34 -157zM577 343c0 81 -1 280 -205 280c-133 0 -220 -126 -220 -294c0 -84 32 -309 219 -309
c74 0 142 37 175 107c31 65 31 165 31 216z" />
    <glyph glyph-name="ordmasculine" unicode="&#xba;" horiz-adv-x="313" 
d="M16 519c0 64 58 131 143 131c73 0 138 -52 138 -124c0 -70 -64 -135 -143 -135c-73 0 -138 55 -138 128zM78 521c0 -61 34 -112 80 -112c48 0 77 54 77 109c0 49 -25 114 -81 114c-44 0 -76 -47 -76 -111z" />
    <glyph glyph-name="ae" unicode="&#xe6;" horiz-adv-x="667" 
d="M349 217c-1 -32 -4 -103 35 -152c4 -4 41 -49 93 -49c41 0 95 24 129 61c9 10 14 13 18 13c5 0 9 -4 9 -9c0 -8 -65 -91 -178 -91c-16 0 -113 0 -172 88c-26 -24 -94 -87 -163 -87c-49 0 -84 34 -84 92c0 69 51 107 239 177c0 52 1 135 -67 135c-62 0 -75 -34 -90 -71
c-6 -14 -18 -33 -41 -33c-6 0 -31 3 -31 28c0 14 8 41 46 59c5 2 78 37 124 37c83 0 112 -46 126 -67c54 61 105 65 129 65c16 0 111 -2 149 -120c6 -20 11 -41 11 -47c0 -4 0 -9 -20 -11c-42 -4 -225 -15 -262 -18zM349 239c92 5 131 6 171 15c24 5 27 14 27 30
c0 70 -33 109 -84 109c-34 0 -67 -18 -89 -49c-24 -34 -24 -75 -25 -105zM275 236c-39 -14 -82 -31 -116 -49s-57 -38 -57 -72c0 -42 29 -80 72 -80c32 0 54 19 101 63c-1 20 0 116 0 138z" />
    <glyph glyph-name="dotlessi" unicode="&#x131;" horiz-adv-x="260" 
d="M165 420l-1 -110c-1 -78 1 -163 1 -241c0 -29 3 -51 46 -53c16 -1 27 -2 27 -11c0 -4 -3 -8 -11 -8c-15 0 -80 6 -93 6c-15 0 -83 -4 -96 -4c-5 0 -12 0 -12 9c0 8 4 9 43 14c23 3 27 18 27 57c0 32 3 176 3 206c0 87 -5 98 -43 106c-5 1 -23 3 -26 5c-2 1 -3 5 -3 6
c0 7 8 9 15 9c37 3 92 7 123 9z" />
    <glyph glyph-name="lslash" unicode="&#x142;" horiz-adv-x="281" 
d="M166 669h8c1 -20 2 -108 2 -123v-157l83 89v-35l-83 -89c1 -111 1 -282 3 -294c7 -40 40 -46 62 -48c5 -1 16 -2 16 -10c0 -3 -3 -8 -13 -8c-7 0 -36 3 -42 4c-24 2 -70 2 -87 2c-14 0 -33 0 -49 -1c-4 -1 -24 -3 -28 -3c-5 0 -15 0 -15 9c0 6 1 7 24 9
c61 5 60 57 60 109c0 16 1 112 0 166l-83 -96v39l83 96c0 96 -2 213 -4 232c-5 45 -37 63 -68 68c-11 2 -19 3 -19 10c0 8 3 8 30 11c40 4 83 7 120 20z" />
    <glyph glyph-name="oslash" unicode="&#xf8;" horiz-adv-x="490" 
d="M115 36l-66 -76l-16 14l66 76c-65 64 -65 141 -65 152c0 111 90 219 215 219c41 0 91 -14 132 -47l62 71l17 -14l-63 -71c43 -44 59 -98 59 -144c0 -116 -97 -223 -215 -223c-23 0 -73 4 -126 43zM356 313l-209 -239c40 -62 90 -61 100 -61c81 0 132 93 132 189
c0 29 -4 67 -23 111zM136 94l209 239c-11 18 -41 68 -104 68c-86 0 -130 -99 -130 -190c0 -37 8 -80 25 -117z" />
    <glyph glyph-name="oe" unicode="&#x153;" horiz-adv-x="781" 
d="M747 219h-17c-17 0 -93 -3 -108 -3c-34 0 -122 2 -156 3c-5 -131 53 -205 128 -205c43 0 82 22 103 46c13 14 14 17 19 17c3 0 7 -2 7 -7c0 -14 -56 -80 -153 -80c-44 0 -88 16 -112 38c-13 12 -20 20 -53 62c-68 -96 -157 -99 -175 -99c-106 0 -195 102 -195 210
c0 114 107 219 222 219c97 0 145 -59 167 -86c24 28 71 84 152 84c62 0 171 -45 171 -199zM466 238c39 -1 140 -3 173 5c31 7 34 33 34 47c0 60 -39 110 -99 110c-97 0 -104 -100 -108 -162zM121 213c0 -54 15 -202 120 -202c92 0 136 114 136 206c0 52 -15 185 -119 185
c-26 0 -56 -9 -75 -23c-44 -33 -62 -113 -62 -166z" />
    <glyph glyph-name="germandbls" unicode="&#xdf;" 
d="M202 2h-175c-4 0 -15 0 -15 9c0 7 8 8 15 9c58 5 58 50 58 66c0 18 -2 99 -2 115c0 246 2 265 4 289c4 47 16 177 172 177c117 0 166 -78 166 -139c0 -91 -81 -118 -121 -130v-2c31 -5 68 -12 102 -42c47 -40 63 -100 63 -152c0 -114 -76 -201 -169 -201
c-57 0 -76 35 -76 56c0 26 23 34 36 34c29 0 34 -26 37 -47c3 -13 4 -24 22 -24c67 0 75 92 75 148c0 206 -77 213 -137 219c-14 1 -22 2 -22 11c0 7 2 7 28 9c63 6 92 48 92 118c0 38 -11 124 -100 124c-74 0 -93 -59 -97 -103c-4 -45 -5 -299 -5 -367
c0 -135 2 -156 53 -160c5 0 9 -4 9 -9c0 -8 -9 -8 -13 -8z" />
    <glyph glyph-name="divide" unicode="&#xf7;" horiz-adv-x="667" 
d="M302 495c0 17 15 27 30 27c17 0 30 -13 30 -30c0 -16 -12 -30 -29 -30c-18 0 -31 16 -31 33zM362 89c0 -17 -13 -30 -30 -30c-16 0 -30 13 -30 30s14 30 30 30c17 0 30 -13 30 -30zM71 312h525v-43h-525v43z" />
    <glyph glyph-name="threequarters" unicode="&#xbe;" horiz-adv-x="719" 
d="M690 75v-2c0 -4 -2 -12 -8 -12c-7 0 -7 3 -10 18c-7 36 -21 36 -70 35v-60c0 -33 21 -36 31 -37c14 -1 19 -3 19 -9c0 -8 -6 -8 -19 -8h-133c-8 0 -10 3 -10 7c0 7 1 7 28 10c21 2 26 25 26 29c2 11 3 58 4 68c-65 1 -83 0 -154 -4v15c53 60 109 117 165 174
c17 18 26 26 35 26c8 0 8 -3 8 -17v-176c49 -1 65 7 70 39c3 22 4 25 10 25s8 -6 8 -11c0 -10 -3 -53 -3 -61c0 -17 1 -18 3 -49zM423 132h125c0 18 2 109 3 130c-38 -35 -92 -92 -128 -130zM220 528v-2c17 -1 75 -8 75 -72c0 -61 -65 -116 -149 -116c-74 0 -103 40 -103 67
c0 15 14 33 36 33c20 0 25 -14 25 -23c0 -5 -5 -26 -5 -30c0 -19 24 -29 43 -29c56 0 94 75 94 118c0 15 -8 35 -30 35c-13 0 -28 -6 -38 -11c-4 -2 -22 -15 -26 -15c-3 0 -8 4 -8 9c0 4 2 6 9 11c16 8 35 21 68 53c10 10 18 21 18 43c0 21 -10 49 -48 49
c-43 0 -74 -44 -74 -75c0 -21 10 -23 13 -23c7 0 10 3 23 15c1 1 3 3 6 3s8 -5 8 -8c0 -4 -16 -30 -43 -30c-28 0 -44 20 -44 47c0 57 71 91 131 91c37 0 84 -22 84 -67c0 -23 -11 -43 -65 -73zM551 665h31l-413 -675h-32z" />
    <glyph glyph-name="onequarter" unicode="&#xbc;" horiz-adv-x="719" 
d="M690 75v-2c0 -4 -2 -12 -8 -12c-7 0 -7 3 -10 18c-7 36 -21 36 -70 35v-60c0 -33 21 -36 31 -37c14 -1 19 -3 19 -9c0 -8 -6 -8 -19 -8h-133c-8 0 -10 3 -10 7c0 7 1 7 28 10c21 2 26 25 26 29c2 11 3 58 4 68c-65 1 -83 0 -154 -4v15c53 60 109 117 165 174
c17 18 26 26 35 26c8 0 8 -3 8 -17v-176c49 -1 65 7 70 39c3 22 4 25 10 25s8 -6 8 -11c0 -10 -3 -53 -3 -61c0 -17 1 -18 3 -49zM423 132h125c0 18 2 109 3 130c-38 -35 -92 -92 -128 -130zM153 428v138c0 33 0 51 -41 58c-12 2 -21 3 -21 10c0 8 11 8 14 8c15 0 44 5 60 9
c11 3 28 15 34 15c9 0 8 -6 8 -22v-231c0 -29 0 -48 30 -53c12 -2 19 -3 19 -9c0 -8 -8 -8 -22 -8h-89h-43c-5 0 -7 1 -7 7c0 7 10 9 21 10c31 3 37 14 37 68zM551 665h31l-413 -675h-32z" />
    <glyph glyph-name="onesuperior" unicode="&#xb9;" horiz-adv-x="344" 
d="M153 428v138c0 33 0 51 -41 58c-12 2 -21 3 -21 10c0 8 11 8 14 8c15 0 44 5 60 9c11 3 28 15 34 15c9 0 8 -6 8 -22v-231c0 -29 0 -48 30 -53c12 -2 19 -3 19 -9c0 -8 -8 -8 -22 -8h-89h-43c-5 0 -7 1 -7 7c0 7 10 9 21 10c31 3 37 14 37 68z" />
    <glyph glyph-name="multiply" unicode="&#xd7;" horiz-adv-x="667" 
d="M96 498l30 30l208 -208l208 208l30 -30l-208 -209l206 -205l-30 -31l-206 206l-207 -206l-30 31l207 205z" />
    <glyph glyph-name="registered" unicode="&#xae;" horiz-adv-x="760" 
d="M188 521h189c91 0 145 -46 145 -109c0 -81 -82 -102 -109 -109l103 -145c29 -41 44 -42 59 -43v-17h-90l-144 198h-37v-151c0 -11 13 -27 34 -29c8 -1 17 -1 24 -1v-17h-179v17c51 0 51 19 51 67v256c0 49 0 65 -46 66v17zM304 492v-175h15c47 0 124 14 124 89
c0 49 -36 93 -98 93c-18 0 -29 -3 -41 -7zM380 654c190 0 346 -153 346 -346c0 -191 -155 -346 -346 -346s-346 155 -346 346c0 193 156 346 346 346zM380 624c-173 0 -316 -139 -316 -316c0 -175 141 -316 316 -316s316 141 316 316c0 177 -143 316 -316 316z" />
    <glyph glyph-name="Thorn" unicode="&#xde;" horiz-adv-x="615" 
d="M213 175v-36c0 -83 18 -113 68 -119c16 -3 24 -4 24 -11c0 -9 -10 -9 -14 -9h-61h-158c-16 0 -25 2 -25 9c0 6 3 7 25 9c21 3 40 16 49 36c6 13 10 72 10 85v343c0 98 -1 131 -57 139c-2 0 -23 3 -24 4c-2 2 -2 7 -2 8c0 8 10 8 14 8h225c8 0 17 0 17 -9
c0 -8 -2 -8 -25 -10c-36 -3 -66 -14 -66 -85v-26c201 5 355 -2 355 -165c0 -144 -135 -171 -270 -171h-85zM213 475v-278c30 -2 54 -3 75 -3c40 0 188 0 188 159c0 139 -134 139 -187 139c-9 0 -40 0 -56 -3c-11 -3 -16 -8 -20 -14z" />
    <glyph glyph-name="brokenbar" unicode="&#xa6;" 
d="M228 175h44v-350h-44v350zM228 675h44v-350h-44v350z" />
    <glyph glyph-name="Eth" unicode="&#xd0;" horiz-adv-x="760" 
d="M231 639l100 1c325 3 386 -210 386 -328c0 -105 -49 -205 -135 -266c-38 -27 -100 -55 -213 -55c-13 0 -47 2 -81 5s-67 4 -79 4c-30 0 -133 -1 -156 -3l-28 -2c-3 0 -12 0 -12 8s6 8 22 11c24 4 41 1 62 18c36 29 35 147 38 274h-84v28h84c0 78 13 224 -22 275
c-10 14 -21 13 -54 18c-5 1 -8 5 -8 10c0 4 2 10 10 10c4 0 23 -1 27 -2c77 -5 85 -7 143 -6zM222 75c17 -33 40 -62 125 -62c217 0 262 209 262 301c0 94 -34 184 -104 246c-54 47 -117 58 -186 58c-86 0 -88 -6 -89 -24c-7 -123 -10 -199 -13 -260h191v-28h-191
c-4 -112 -7 -208 5 -231z" />
    <glyph glyph-name="onehalf" unicode="&#xbd;" horiz-adv-x="719" 
d="M153 428v138c0 33 0 51 -41 58c-12 2 -21 3 -21 10c0 8 11 8 14 8c15 0 44 5 60 9c11 3 28 15 34 15c9 0 8 -6 8 -22v-231c0 -29 0 -48 30 -53c12 -2 19 -3 19 -9c0 -8 -8 -8 -22 -8h-89h-43c-5 0 -7 1 -7 7c0 7 10 9 21 10c31 3 37 14 37 68zM647 0h-211
c-21 0 -24 0 -24 5c0 4 10 12 17 17c98 70 175 133 175 217c0 41 -22 66 -54 66c-42 0 -94 -38 -94 -99c0 -39 18 -42 23 -42c13 0 23 9 38 23c6 5 9 7 12 7c1 0 8 -1 8 -7c0 -9 -30 -44 -65 -44c-32 0 -58 29 -58 59c0 51 55 121 155 121c39 0 98 -21 98 -79
c0 -32 -19 -68 -39 -89c-17 -18 -65 -54 -134 -103v-2h80c48 0 68 0 81 21c12 20 13 23 19 23c4 0 7 -5 7 -8s-3 -10 -4 -13zM551 665h31l-413 -675h-32z" />
    <glyph glyph-name="minus" unicode="&#x2212;" horiz-adv-x="667" 
d="M71 312h525v-43h-525v43z" />
    <glyph glyph-name="ccedilla" unicode="&#xe7;" horiz-adv-x="417" 
d="M248 -6c-7 -11 -9 -15 -16 -30c57 -7 63 -44 63 -57c0 -49 -63 -78 -130 -78c-11 0 -36 0 -36 9s15 10 20 10c36 0 75 10 75 42c0 26 -25 30 -37 32c16 26 17 28 40 71c-124 -1 -194 108 -194 205c0 105 75 222 197 222c33 0 151 -20 151 -91c0 -22 -15 -38 -31 -38
c-27 0 -36 25 -42 44c-10 30 -28 67 -79 67c-111 0 -112 -153 -112 -175c0 -119 59 -208 137 -208c52 0 106 47 113 100c2 12 5 14 11 14c8 0 9 -5 9 -8c0 -34 -30 -118 -139 -131z" />
    <glyph glyph-name="eth" unicode="&#xf0;" horiz-adv-x="490" 
d="M146 503l86 68c-7 7 -11 12 -44 50c-6 6 -36 32 -48 42h41c29 -20 65 -49 82 -66l83 66l16 -17l-82 -65c32 -33 70 -73 103 -129c43 -73 73 -159 73 -231c0 -138 -101 -230 -213 -230c-117 0 -209 93 -209 210c0 107 79 217 209 217c52 0 81 -20 101 -35l2 2
c-34 72 -51 104 -100 169l-86 -67zM111 211c0 -139 72 -200 134 -200c41 0 134 36 134 185c0 90 -34 202 -132 202c-77 0 -136 -82 -136 -187z" />
    <glyph glyph-name="plusminus" unicode="&#xb1;" horiz-adv-x="667" 
d="M71 389h241v241h43v-241h241v-43h-241v-241h-43v241h-241v43zM71 43h525v-43h-525v43z" />
    <glyph glyph-name="Ccedilla" unicode="&#xc7;" horiz-adv-x="646" 
d="M385 -12l-10 -25c54 -5 78 -40 78 -70c0 -20 -11 -100 -161 -100c-22 0 -35 0 -35 11c0 10 11 10 16 10c33 0 105 0 105 55c0 8 -4 43 -56 45c20 31 36 58 43 73c-153 0 -317 113 -317 328c0 225 171 338 316 338c81 0 144 -35 179 -55c24 22 27 24 33 38c2 4 8 6 12 6
c10 0 11 -7 11 -17l11 -170c1 -12 2 -22 -8 -22c-8 0 -11 8 -17 22c-37 87 -113 176 -215 176c-132 0 -214 -140 -214 -300c0 -205 137 -312 246 -312c114 0 183 103 199 134c6 11 9 15 15 15c4 0 11 -2 11 -12s-69 -154 -242 -168z" />
    <glyph glyph-name="thorn" unicode="&#xfe;" 
d="M158 666v-330c16 19 58 70 132 70c94 0 180 -90 180 -205c0 -123 -104 -208 -199 -208c-13 0 -68 0 -116 39c-2 -91 -2 -135 -2 -186c0 -31 0 -67 50 -74c16 -2 21 -4 21 -12c0 -6 -3 -8 -8 -8c-12 0 -44 1 -75 2s-62 2 -73 2c-4 0 -18 -1 -29 -1c-12 -1 -23 -2 -23 -2
c-7 0 -12 4 -12 10s2 8 12 9c60 6 65 22 69 113c4 99 0 140 5 489l2 136c2 104 -1 133 -54 137c-11 1 -14 4 -14 11c0 6 5 8 17 8h117zM154 186c0 -67 4 -102 22 -131c14 -22 47 -42 84 -42c66 0 133 61 133 182c0 119 -60 180 -127 180c-41 0 -73 -24 -89 -51
s-23 -56 -23 -138z" />
    <glyph glyph-name="copyright" unicode="&#xa9;" horiz-adv-x="760" 
d="M551 531l10 -137h-19c-9 28 -35 115 -148 115c-92 0 -157 -67 -157 -190c0 -32 0 -201 162 -201c55 0 109 19 152 79l19 -10c-46 -66 -107 -99 -188 -99c-137 0 -226 104 -226 217c0 119 95 226 243 226c33 0 47 -4 91 -18c10 -4 14 -4 18 -4c15 0 19 11 24 22h19z
M380 654c190 0 346 -153 346 -346c0 -191 -155 -346 -346 -346s-346 155 -346 346c0 193 156 346 346 346zM380 624c-173 0 -316 -139 -316 -316c0 -175 141 -316 316 -316s316 141 316 316c0 177 -143 316 -316 316z" />
    <glyph glyph-name="logicalnot" unicode="&#xac;" horiz-adv-x="667" 
d="M71 431h525v-281h-43v238h-482v43z" />
    <glyph glyph-name="twosuperior" unicode="&#xb2;" horiz-adv-x="344" 
d="M273 343h-210c-22 0 -24 0 -24 5c0 4 10 11 16 16c93 77 176 134 176 219c0 41 -22 66 -54 66c-43 0 -94 -39 -94 -100c0 -39 18 -42 23 -42c12 0 22 9 38 23c5 5 8 8 11 8c2 0 8 -1 8 -8c0 -8 -29 -44 -65 -44c-31 0 -57 29 -57 60c0 69 76 121 155 121
c39 0 98 -21 98 -80c0 -32 -19 -68 -39 -88c-18 -18 -66 -56 -134 -105v-2h80c48 0 68 0 81 22c12 20 13 22 18 22c4 0 8 -4 8 -7s-3 -10 -4 -13z" />
    <glyph glyph-name="threesuperior" unicode="&#xb3;" horiz-adv-x="344" 
d="M218 528v-2c18 -1 75 -8 75 -72c0 -61 -65 -116 -148 -116c-74 0 -104 40 -104 67c0 15 15 33 37 33c20 0 25 -14 25 -23c0 -5 -6 -26 -6 -30c0 -19 24 -29 44 -29c56 0 93 75 93 118c0 15 -7 35 -29 35c-14 0 -29 -6 -39 -11c-4 -2 -21 -15 -26 -15c-3 0 -7 4 -7 9
c0 4 1 6 9 11c15 8 34 21 67 53c10 10 18 21 18 43c0 21 -10 49 -47 49c-43 0 -75 -44 -75 -75c0 -21 10 -23 13 -23c7 0 11 3 23 15c1 1 4 3 6 3c3 0 9 -5 9 -8c0 -4 -17 -30 -44 -30c-28 0 -44 20 -44 47c0 57 71 91 131 91c37 0 84 -22 84 -67c0 -23 -10 -43 -65 -73z
" />
    <glyph glyph-name="trademark" unicode="&#x2122;" horiz-adv-x="979" 
d="M137 238v16c45 -1 57 6 57 79v276h-45c-43 0 -70 -5 -77 -68h-13v92h329v-92h-13c-6 52 -18 68 -76 68h-46v-276c0 -73 11 -80 58 -79v-16h-174zM423 633h116l144 -310l140 310h111v-15c-51 -3 -56 -9 -56 -64v-231c0 -58 4 -68 56 -69v-16h-169v16c51 0 58 9 58 69v252
h-2l-150 -337h-8l-155 330h-2v-248c0 -58 0 -66 57 -66v-16h-140v16c56 0 56 11 56 69v224c0 52 -1 66 -56 71v15z" />
    <glyph glyph-name="degree" unicode="&#xb0;" horiz-adv-x="396" 
d="M198 677c83 0 150 -67 150 -150s-67 -150 -150 -150c-82 0 -150 66 -150 150c0 83 68 150 150 150zM198 636c-59 0 -109 -48 -109 -109c0 -60 48 -109 109 -109c60 0 109 49 109 109c0 61 -50 109 -109 109z" />
    <glyph glyph-name="mu" unicode="&#xb5;" 
d="M58 410h80v-223c0 -70 1 -141 70 -141c35 0 74 19 115 66v298h80v-282c0 -56 2 -89 33 -89s38 47 40 60h20c-5 -62 -30 -113 -97 -113c-68 0 -73 63 -76 93c-25 -30 -79 -93 -154 -93c-46 0 -62 23 -75 42h-2c0 -42 2 -61 10 -102c9 -46 14 -71 14 -87
c0 -23 -14 -55 -46 -55c-36 0 -43 38 -43 54c0 22 3 31 22 111c8 34 9 106 9 144v317z" />
    <glyph glyph-name="Aacute" unicode="&#xc1;" horiz-adv-x="688" 
d="M321 654h23c54 -112 136 -345 178 -462c58 -162 80 -175 131 -180c11 -1 16 -4 16 -10c0 -7 -4 -7 -8 -7c-9 0 -35 2 -61 3s-51 2 -60 2c-11 0 -42 -1 -72 -2c-29 -1 -57 -3 -69 -3c-2 0 -11 0 -11 9c0 6 3 7 33 10c14 1 51 8 51 46c0 20 -21 79 -29 105
c-8 25 -23 62 -29 83c-47 1 -174 -1 -227 -2c-40 -106 -51 -143 -51 -171c0 -36 36 -59 75 -62c7 0 18 -1 18 -11c0 -3 -2 -5 -6 -7c-7 0 -28 1 -48 3c-20 1 -39 2 -46 2c-9 0 -33 -1 -57 -2c-24 -2 -48 -3 -56 -3c-3 0 -13 0 -13 9c0 7 7 9 14 9c61 9 84 73 98 111
c57 154 64 171 97 264c22 63 64 168 109 266zM302 545c-42 -87 -75 -178 -106 -269c21 1 48 2 75 2c19 0 113 -2 134 -2c-14 39 -87 227 -103 269zM298 687c-2 -2 -12 -9 -16 -9c-2 0 -7 3 -7 6c0 4 1 6 14 24l76 106c21 29 37 53 65 53c23 0 32 -19 32 -31
c0 -18 -13 -35 -48 -61z" />
    <glyph glyph-name="Acircumflex" unicode="&#xc2;" horiz-adv-x="688" 
d="M321 654h23c54 -112 136 -345 178 -462c58 -162 80 -175 131 -180c11 -1 16 -4 16 -10c0 -7 -4 -7 -8 -7c-9 0 -35 2 -61 3s-51 2 -60 2c-11 0 -42 -1 -72 -2c-29 -1 -57 -3 -69 -3c-2 0 -11 0 -11 9c0 6 3 7 33 10c14 1 51 8 51 46c0 20 -21 79 -29 105
c-8 25 -23 62 -29 83c-47 1 -174 -1 -227 -2c-40 -106 -51 -143 -51 -171c0 -36 36 -59 75 -62c7 0 18 -1 18 -11c0 -3 -2 -5 -6 -7c-7 0 -28 1 -48 3c-20 1 -39 2 -46 2c-9 0 -33 -1 -57 -2c-24 -2 -48 -3 -56 -3c-3 0 -13 0 -13 9c0 7 7 9 14 9c61 9 84 73 98 111
c57 154 64 171 97 264c22 63 64 168 109 266zM302 545c-42 -87 -75 -178 -106 -269c21 1 48 2 75 2c19 0 113 -2 134 -2c-14 39 -87 227 -103 269zM317 878h54l89 -159c4 -8 12 -23 12 -25c0 -4 -4 -8 -7 -8c-4 0 -7 2 -14 10l-106 110l-97 -100c-7 -7 -19 -20 -23 -20
c-6 0 -8 5 -8 7c0 5 1 6 14 30z" />
    <glyph glyph-name="Adieresis" unicode="&#xc4;" horiz-adv-x="688" 
d="M321 654h23c54 -112 136 -345 178 -462c58 -162 80 -175 131 -180c11 -1 16 -4 16 -10c0 -7 -4 -7 -8 -7c-9 0 -35 2 -61 3s-51 2 -60 2c-11 0 -42 -1 -72 -2c-29 -1 -57 -3 -69 -3c-2 0 -11 0 -11 9c0 6 3 7 33 10c14 1 51 8 51 46c0 20 -21 79 -29 105
c-8 25 -23 62 -29 83c-47 1 -174 -1 -227 -2c-40 -106 -51 -143 -51 -171c0 -36 36 -59 75 -62c7 0 18 -1 18 -11c0 -3 -2 -5 -6 -7c-7 0 -28 1 -48 3c-20 1 -39 2 -46 2c-9 0 -33 -1 -57 -2c-24 -2 -48 -3 -56 -3c-3 0 -13 0 -13 9c0 7 7 9 14 9c61 9 84 73 98 111
c57 154 64 171 97 264c22 63 64 168 109 266zM302 545c-42 -87 -75 -178 -106 -269c21 1 48 2 75 2c19 0 113 -2 134 -2c-14 39 -87 227 -103 269zM252 788c24 0 45 -19 45 -45s-21 -45 -45 -45s-45 19 -45 45s22 45 45 45zM437 788c23 0 45 -19 45 -45s-21 -45 -45 -45
s-45 19 -45 45s21 45 45 45z" />
    <glyph glyph-name="Agrave" unicode="&#xc0;" horiz-adv-x="688" 
d="M321 654h23c54 -112 136 -345 178 -462c58 -162 80 -175 131 -180c11 -1 16 -4 16 -10c0 -7 -4 -7 -8 -7c-9 0 -35 2 -61 3s-51 2 -60 2c-11 0 -42 -1 -72 -2c-29 -1 -57 -3 -69 -3c-2 0 -11 0 -11 9c0 6 3 7 33 10c14 1 51 8 51 46c0 20 -21 79 -29 105
c-8 25 -23 62 -29 83c-47 1 -174 -1 -227 -2c-40 -106 -51 -143 -51 -171c0 -36 36 -59 75 -62c7 0 18 -1 18 -11c0 -3 -2 -5 -6 -7c-7 0 -28 1 -48 3c-20 1 -39 2 -46 2c-9 0 -33 -1 -57 -2c-24 -2 -48 -3 -56 -3c-3 0 -13 0 -13 9c0 7 7 9 14 9c61 9 84 73 98 111
c57 154 64 171 97 264c22 63 64 168 109 266zM302 545c-42 -87 -75 -178 -106 -269c21 1 48 2 75 2c19 0 113 -2 134 -2c-14 39 -87 227 -103 269zM391 687l-116 88c-35 26 -48 43 -48 61c0 12 9 31 32 31c28 0 44 -24 65 -53l76 -106c12 -18 14 -20 14 -24
c0 -3 -5 -6 -7 -6c-4 0 -14 7 -16 9z" />
    <glyph glyph-name="Aring" unicode="&#xc5;" horiz-adv-x="688" 
d="M321 654h23c54 -112 136 -345 178 -462c58 -162 80 -175 131 -180c11 -1 16 -4 16 -10c0 -7 -4 -7 -8 -7c-9 0 -35 2 -61 3s-51 2 -60 2c-11 0 -42 -1 -72 -2c-29 -1 -57 -3 -69 -3c-2 0 -11 0 -11 9c0 6 3 7 33 10c14 1 51 8 51 46c0 20 -21 79 -29 105
c-8 25 -23 62 -29 83c-47 1 -174 -1 -227 -2c-40 -106 -51 -143 -51 -171c0 -36 36 -59 75 -62c7 0 18 -1 18 -11c0 -3 -2 -5 -6 -7c-7 0 -28 1 -48 3c-20 1 -39 2 -46 2c-9 0 -33 -1 -57 -2c-24 -2 -48 -3 -56 -3c-3 0 -13 0 -13 9c0 7 7 9 14 9c61 9 84 73 98 111
c57 154 64 171 97 264c22 63 64 168 109 266zM302 545c-42 -87 -75 -178 -106 -269c21 1 48 2 75 2c19 0 113 -2 134 -2c-14 39 -87 227 -103 269zM324 853c44 0 79 -36 79 -79s-35 -79 -79 -79c-43 0 -78 36 -78 79c0 44 35 79 78 79zM324 823c-26 0 -48 -22 -48 -49
s23 -49 48 -49c27 0 49 23 49 49s-21 49 -49 49z" />
    <glyph glyph-name="Atilde" unicode="&#xc3;" horiz-adv-x="688" 
d="M321 654h23c54 -112 136 -345 178 -462c58 -162 80 -175 131 -180c11 -1 16 -4 16 -10c0 -7 -4 -7 -8 -7c-9 0 -35 2 -61 3s-51 2 -60 2c-11 0 -42 -1 -72 -2c-29 -1 -57 -3 -69 -3c-2 0 -11 0 -11 9c0 6 3 7 33 10c14 1 51 8 51 46c0 20 -21 79 -29 105
c-8 25 -23 62 -29 83c-47 1 -174 -1 -227 -2c-40 -106 -51 -143 -51 -171c0 -36 36 -59 75 -62c7 0 18 -1 18 -11c0 -3 -2 -5 -6 -7c-7 0 -28 1 -48 3c-20 1 -39 2 -46 2c-9 0 -33 -1 -57 -2c-24 -2 -48 -3 -56 -3c-3 0 -13 0 -13 9c0 7 7 9 14 9c61 9 84 73 98 111
c57 154 64 171 97 264c22 63 64 168 109 266zM302 545c-42 -87 -75 -178 -106 -269c21 1 48 2 75 2c19 0 113 -2 134 -2c-14 39 -87 227 -103 269zM293 795c13 0 27 -2 59 -22c31 -20 46 -23 59 -23c23 0 40 15 43 37c1 6 1 7 16 7c6 0 7 -1 7 -9c0 -42 -25 -100 -81 -100
c-24 0 -29 3 -81 35c-11 7 -21 12 -36 12c-23 0 -42 -16 -45 -35c-1 -10 -1 -12 -12 -12c-7 0 -10 1 -10 8s8 102 81 102z" />
    <glyph glyph-name="Eacute" unicode="&#xc9;" horiz-adv-x="656" 
d="M162 0h-120c-6 0 -14 1 -14 8c0 8 10 10 15 10c26 0 64 7 75 35c14 35 10 113 13 234l2 93c1 31 -4 181 -10 197c-9 25 -35 33 -69 42c-5 1 -13 4 -13 11c0 9 14 9 17 9s20 -1 38 -3c18 -1 37 -3 43 -3h417c7 -30 15 -64 28 -153c-2 -2 -3 -4 -6 -4c-5 0 -8 5 -15 17
c-73 126 -144 119 -225 119c-36 0 -78 -1 -113 -8c-4 -8 -6 -40 -6 -46c0 -46 -6 -174 -3 -214c6 0 37 -2 51 -2c85 0 111 21 137 97c2 5 5 11 10 11c7 0 9 -8 9 -15c0 -1 -5 -48 -5 -57c0 -22 -1 -39 -1 -51c0 -22 0 -49 1 -76c1 -6 2 -31 2 -36c0 -4 -1 -15 -9 -15
c-6 0 -9 7 -9 12c-18 96 -73 109 -186 108c-1 -24 -1 -45 -1 -91c0 -142 4 -158 18 -177c25 -34 93 -35 118 -35c73 0 196 10 246 127c1 4 7 17 14 17s8 -8 8 -11c0 -11 -31 -140 -35 -156c-61 -1 -137 0 -213 2s-151 4 -209 4zM282 687c-2 -2 -12 -9 -16 -9c-2 0 -7 3 -7 6
c0 4 1 6 14 24l76 106c21 29 37 53 65 53c23 0 32 -19 32 -31c0 -18 -13 -35 -48 -61z" />
    <glyph glyph-name="Ecircumflex" unicode="&#xca;" horiz-adv-x="656" 
d="M162 0h-120c-6 0 -14 1 -14 8c0 8 10 10 15 10c26 0 64 7 75 35c14 35 10 113 13 234l2 93c1 31 -4 181 -10 197c-9 25 -35 33 -69 42c-5 1 -13 4 -13 11c0 9 14 9 17 9s20 -1 38 -3c18 -1 37 -3 43 -3h417c7 -30 15 -64 28 -153c-2 -2 -3 -4 -6 -4c-5 0 -8 5 -15 17
c-73 126 -144 119 -225 119c-36 0 -78 -1 -113 -8c-4 -8 -6 -40 -6 -46c0 -46 -6 -174 -3 -214c6 0 37 -2 51 -2c85 0 111 21 137 97c2 5 5 11 10 11c7 0 9 -8 9 -15c0 -1 -5 -48 -5 -57c0 -22 -1 -39 -1 -51c0 -22 0 -49 1 -76c1 -6 2 -31 2 -36c0 -4 -1 -15 -9 -15
c-6 0 -9 7 -9 12c-18 96 -73 109 -186 108c-1 -24 -1 -45 -1 -91c0 -142 4 -158 18 -177c25 -34 93 -35 118 -35c73 0 196 10 246 127c1 4 7 17 14 17s8 -8 8 -11c0 -11 -31 -140 -35 -156c-61 -1 -137 0 -213 2s-151 4 -209 4zM301 878h54l89 -159c4 -8 12 -23 12 -25
c0 -4 -4 -8 -7 -8c-4 0 -7 2 -14 10l-106 110l-97 -100c-7 -7 -19 -20 -23 -20c-6 0 -8 5 -8 7c0 5 1 6 14 30z" />
    <glyph glyph-name="Edieresis" unicode="&#xcb;" horiz-adv-x="656" 
d="M162 0h-120c-6 0 -14 1 -14 8c0 8 10 10 15 10c26 0 64 7 75 35c14 35 10 113 13 234l2 93c1 31 -4 181 -10 197c-9 25 -35 33 -69 42c-5 1 -13 4 -13 11c0 9 14 9 17 9s20 -1 38 -3c18 -1 37 -3 43 -3h417c7 -30 15 -64 28 -153c-2 -2 -3 -4 -6 -4c-5 0 -8 5 -15 17
c-73 126 -144 119 -225 119c-36 0 -78 -1 -113 -8c-4 -8 -6 -40 -6 -46c0 -46 -6 -174 -3 -214c6 0 37 -2 51 -2c85 0 111 21 137 97c2 5 5 11 10 11c7 0 9 -8 9 -15c0 -1 -5 -48 -5 -57c0 -22 -1 -39 -1 -51c0 -22 0 -49 1 -76c1 -6 2 -31 2 -36c0 -4 -1 -15 -9 -15
c-6 0 -9 7 -9 12c-18 96 -73 109 -186 108c-1 -24 -1 -45 -1 -91c0 -142 4 -158 18 -177c25 -34 93 -35 118 -35c73 0 196 10 246 127c1 4 7 17 14 17s8 -8 8 -11c0 -11 -31 -140 -35 -156c-61 -1 -137 0 -213 2s-151 4 -209 4zM236 788c24 0 45 -19 45 -45s-21 -45 -45 -45
s-45 19 -45 45s22 45 45 45zM421 788c23 0 45 -19 45 -45s-21 -45 -45 -45s-45 19 -45 45s21 45 45 45z" />
    <glyph glyph-name="Egrave" unicode="&#xc8;" horiz-adv-x="656" 
d="M162 0h-120c-6 0 -14 1 -14 8c0 8 10 10 15 10c26 0 64 7 75 35c14 35 10 113 13 234l2 93c1 31 -4 181 -10 197c-9 25 -35 33 -69 42c-5 1 -13 4 -13 11c0 9 14 9 17 9s20 -1 38 -3c18 -1 37 -3 43 -3h417c7 -30 15 -64 28 -153c-2 -2 -3 -4 -6 -4c-5 0 -8 5 -15 17
c-73 126 -144 119 -225 119c-36 0 -78 -1 -113 -8c-4 -8 -6 -40 -6 -46c0 -46 -6 -174 -3 -214c6 0 37 -2 51 -2c85 0 111 21 137 97c2 5 5 11 10 11c7 0 9 -8 9 -15c0 -1 -5 -48 -5 -57c0 -22 -1 -39 -1 -51c0 -22 0 -49 1 -76c1 -6 2 -31 2 -36c0 -4 -1 -15 -9 -15
c-6 0 -9 7 -9 12c-18 96 -73 109 -186 108c-1 -24 -1 -45 -1 -91c0 -142 4 -158 18 -177c25 -34 93 -35 118 -35c73 0 196 10 246 127c1 4 7 17 14 17s8 -8 8 -11c0 -11 -31 -140 -35 -156c-61 -1 -137 0 -213 2s-151 4 -209 4zM375 687l-116 88c-35 26 -48 43 -48 61
c0 12 9 31 32 31c28 0 44 -24 65 -53l76 -106c12 -18 14 -20 14 -24c0 -3 -5 -6 -7 -6c-4 0 -14 7 -16 9z" />
    <glyph glyph-name="Iacute" unicode="&#xcd;" horiz-adv-x="375" 
d="M281 -1c-35 0 -88 1 -150 1c-16 0 -51 -2 -55 -1c-6 0 -11 3 -11 9c0 10 10 11 14 11c18 0 49 2 55 38c5 29 6 142 6 179c0 62 0 301 -12 345c-6 22 -19 37 -57 43c-8 1 -13 4 -13 11c0 9 7 9 10 9c13 0 70 -2 81 -2c23 0 123 2 144 2c10 0 25 0 25 -10
c0 -7 -11 -8 -14 -9c-37 -5 -66 -15 -72 -55c-8 -51 -8 -170 -8 -230c0 -57 4 -234 9 -265c8 -47 42 -54 72 -58c4 0 13 -2 13 -9s-12 -9 -37 -9zM141 687c-2 -2 -12 -9 -16 -9c-2 0 -7 3 -7 6c0 4 1 6 14 24l76 106c21 29 37 53 65 53c23 0 32 -19 32 -31
c0 -18 -13 -35 -48 -61z" />
    <glyph glyph-name="Icircumflex" unicode="&#xce;" horiz-adv-x="375" 
d="M281 -1c-35 0 -88 1 -150 1c-16 0 -51 -2 -55 -1c-6 0 -11 3 -11 9c0 10 10 11 14 11c18 0 49 2 55 38c5 29 6 142 6 179c0 62 0 301 -12 345c-6 22 -19 37 -57 43c-8 1 -13 4 -13 11c0 9 7 9 10 9c13 0 70 -2 81 -2c23 0 123 2 144 2c10 0 25 0 25 -10
c0 -7 -11 -8 -14 -9c-37 -5 -66 -15 -72 -55c-8 -51 -8 -170 -8 -230c0 -57 4 -234 9 -265c8 -47 42 -54 72 -58c4 0 13 -2 13 -9s-12 -9 -37 -9zM160 878h54l89 -159c4 -8 12 -23 12 -25c0 -4 -4 -8 -7 -8c-4 0 -7 2 -14 10l-106 110l-97 -100c-7 -7 -19 -20 -23 -20
c-6 0 -8 5 -8 7c0 5 1 6 14 30z" />
    <glyph glyph-name="Idieresis" unicode="&#xcf;" horiz-adv-x="375" 
d="M281 -1c-35 0 -88 1 -150 1c-16 0 -51 -2 -55 -1c-6 0 -11 3 -11 9c0 10 10 11 14 11c18 0 49 2 55 38c5 29 6 142 6 179c0 62 0 301 -12 345c-6 22 -19 37 -57 43c-8 1 -13 4 -13 11c0 9 7 9 10 9c13 0 70 -2 81 -2c23 0 123 2 144 2c10 0 25 0 25 -10
c0 -7 -11 -8 -14 -9c-37 -5 -66 -15 -72 -55c-8 -51 -8 -170 -8 -230c0 -57 4 -234 9 -265c8 -47 42 -54 72 -58c4 0 13 -2 13 -9s-12 -9 -37 -9zM95 788c24 0 45 -19 45 -45s-21 -45 -45 -45s-45 19 -45 45s22 45 45 45zM280 788c23 0 45 -19 45 -45s-21 -45 -45 -45
s-45 19 -45 45s21 45 45 45z" />
    <glyph glyph-name="Igrave" unicode="&#xcc;" horiz-adv-x="375" 
d="M281 -1c-35 0 -88 1 -150 1c-16 0 -51 -2 -55 -1c-6 0 -11 3 -11 9c0 10 10 11 14 11c18 0 49 2 55 38c5 29 6 142 6 179c0 62 0 301 -12 345c-6 22 -19 37 -57 43c-8 1 -13 4 -13 11c0 9 7 9 10 9c13 0 70 -2 81 -2c23 0 123 2 144 2c10 0 25 0 25 -10
c0 -7 -11 -8 -14 -9c-37 -5 -66 -15 -72 -55c-8 -51 -8 -170 -8 -230c0 -57 4 -234 9 -265c8 -47 42 -54 72 -58c4 0 13 -2 13 -9s-12 -9 -37 -9zM234 687l-116 88c-35 26 -48 43 -48 61c0 12 9 31 32 31c28 0 44 -24 65 -53l76 -106c12 -18 14 -20 14 -24c0 -3 -5 -6 -7 -6
c-4 0 -14 7 -16 9z" />
    <glyph glyph-name="Ntilde" unicode="&#xd1;" horiz-adv-x="750" 
d="M291 503l270 -316c9 -9 23 -25 26 -29c4 70 5 172 5 244c0 120 -1 151 -29 181c-29 32 -71 36 -78 36c-12 0 -19 0 -19 8c0 6 4 9 10 10c9 1 123 -6 152 -4l87 5c5 0 16 0 16 -9c0 -6 -7 -9 -13 -9c-101 -11 -101 -51 -101 -226c0 -126 0 -253 -5 -379
c0 -3 -1 -15 -10 -15c-7 0 -15 10 -19 14c-34 41 -189 220 -220 257s-73 89 -92 109c-25 27 -71 76 -83 97c-6 11 -13 15 -15 15c-6 0 -6 -8 -6 -19c0 -222 8 -294 15 -357c3 -26 8 -72 62 -91c8 -2 43 -10 50 -12c4 -1 6 -5 6 -9c0 -9 -12 -9 -18 -9c-15 1 -62 5 -114 5
c-51 1 -107 -3 -121 -4c-5 0 -17 1 -17 8c0 8 9 10 16 10c98 0 100 58 100 145c0 84 -4 218 -6 302c-1 31 -4 76 -60 133c-11 11 -28 22 -49 25c-4 0 -17 2 -17 8c0 10 13 10 22 10c47 0 125 0 143 -1c31 -42 36 -44 112 -133zM324 795c13 0 27 -2 59 -22
c31 -20 46 -23 59 -23c23 0 40 15 43 37c1 6 1 7 16 7c6 0 7 -1 7 -9c0 -42 -25 -100 -81 -100c-24 0 -29 3 -81 35c-11 7 -21 12 -36 12c-23 0 -42 -16 -45 -35c-1 -10 -1 -12 -12 -12c-7 0 -10 1 -10 8s8 102 81 102z" />
    <glyph glyph-name="Oacute" unicode="&#xd3;" horiz-adv-x="729" 
d="M43 324c0 125 114 326 331 326c197 0 312 -169 312 -318c0 -158 -133 -341 -335 -341c-155 0 -308 116 -308 333zM151 340c0 -51 12 -179 69 -253c29 -38 85 -72 144 -72c159 0 214 197 214 312c0 133 -70 299 -216 299c-152 0 -211 -185 -211 -286zM318 687
c-2 -2 -12 -9 -16 -9c-2 0 -7 3 -7 6c0 4 1 6 14 24l76 106c21 29 37 53 65 53c23 0 32 -19 32 -31c0 -18 -13 -35 -48 -61z" />
    <glyph glyph-name="Ocircumflex" unicode="&#xd4;" horiz-adv-x="729" 
d="M43 324c0 125 114 326 331 326c197 0 312 -169 312 -318c0 -158 -133 -341 -335 -341c-155 0 -308 116 -308 333zM151 340c0 -51 12 -179 69 -253c29 -38 85 -72 144 -72c159 0 214 197 214 312c0 133 -70 299 -216 299c-152 0 -211 -185 -211 -286zM337 878h54l89 -159
c4 -8 12 -23 12 -25c0 -4 -4 -8 -7 -8c-4 0 -7 2 -14 10l-106 110l-97 -100c-7 -7 -19 -20 -23 -20c-6 0 -8 5 -8 7c0 5 1 6 14 30z" />
    <glyph glyph-name="Odieresis" unicode="&#xd6;" horiz-adv-x="729" 
d="M43 324c0 125 114 326 331 326c197 0 312 -169 312 -318c0 -158 -133 -341 -335 -341c-155 0 -308 116 -308 333zM151 340c0 -51 12 -179 69 -253c29 -38 85 -72 144 -72c159 0 214 197 214 312c0 133 -70 299 -216 299c-152 0 -211 -185 -211 -286zM272 788
c24 0 45 -19 45 -45s-21 -45 -45 -45s-45 19 -45 45s22 45 45 45zM457 788c23 0 45 -19 45 -45s-21 -45 -45 -45s-45 19 -45 45s21 45 45 45z" />
    <glyph glyph-name="Ograve" unicode="&#xd2;" horiz-adv-x="729" 
d="M43 324c0 125 114 326 331 326c197 0 312 -169 312 -318c0 -158 -133 -341 -335 -341c-155 0 -308 116 -308 333zM151 340c0 -51 12 -179 69 -253c29 -38 85 -72 144 -72c159 0 214 197 214 312c0 133 -70 299 -216 299c-152 0 -211 -185 -211 -286zM411 687l-116 88
c-35 26 -48 43 -48 61c0 12 9 31 32 31c28 0 44 -24 65 -53l76 -106c12 -18 14 -20 14 -24c0 -3 -5 -6 -7 -6c-4 0 -14 7 -16 9z" />
    <glyph glyph-name="Otilde" unicode="&#xd5;" horiz-adv-x="729" 
d="M43 324c0 125 114 326 331 326c197 0 312 -169 312 -318c0 -158 -133 -341 -335 -341c-155 0 -308 116 -308 333zM151 340c0 -51 12 -179 69 -253c29 -38 85 -72 144 -72c159 0 214 197 214 312c0 133 -70 299 -216 299c-152 0 -211 -185 -211 -286zM313 795
c13 0 27 -2 59 -22c31 -20 46 -23 59 -23c23 0 40 15 43 37c1 6 1 7 16 7c6 0 7 -1 7 -9c0 -42 -25 -100 -81 -100c-24 0 -29 3 -81 35c-11 7 -21 12 -36 12c-23 0 -42 -16 -45 -35c-1 -10 -1 -12 -12 -12c-7 0 -10 1 -10 8s8 102 81 102z" />
    <glyph glyph-name="Scaron" unicode="&#x160;" horiz-adv-x="521" 
d="M388 605c13 12 15 17 18 27c2 6 5 11 11 11c2 0 5 0 9 -4c2 -13 22 -159 22 -163c0 -5 -7 -9 -11 -9c-3 0 -6 0 -10 10c-28 70 -95 149 -189 149c-76 0 -117 -57 -117 -112c0 -79 66 -101 166 -133c67 -21 201 -63 201 -192c0 -101 -95 -199 -221 -199
c-20 0 -87 2 -168 52c-15 -14 -17 -20 -23 -39c-1 -3 -3 -9 -11 -9c-7 0 -9 3 -11 23c-5 46 -12 152 -14 186c1 6 7 7 10 7c5 0 8 -2 12 -11c60 -135 124 -189 210 -189c105 0 142 80 142 132c0 100 -103 133 -180 158c-94 30 -126 51 -152 81c-24 27 -38 65 -38 99
c0 88 89 166 203 166c64 0 109 -24 141 -41zM288 687h-54l-89 159c-4 8 -12 23 -12 25c0 4 4 8 7 8c4 0 7 -2 14 -10l106 -110l97 100c7 7 19 20 23 20c6 0 8 -5 8 -7c0 -5 -1 -6 -14 -30z" />
    <glyph glyph-name="Uacute" unicode="&#xda;" horiz-adv-x="760" 
d="M51 639h245c13 0 21 0 21 -8s-9 -9 -32 -13c-66 -10 -69 -89 -69 -242c0 -142 2 -208 21 -253c33 -80 122 -93 176 -93c87 0 171 27 189 134c10 60 13 163 13 275c0 96 -7 179 -91 180c-8 0 -19 1 -19 10c0 10 11 10 24 10h196c5 0 13 -1 13 -10c0 -3 -1 -6 -11 -8
c-68 -10 -82 -33 -82 -228c-1 -76 -2 -225 -30 -288c-27 -60 -105 -114 -241 -114c-38 0 -160 6 -214 81c-25 35 -33 72 -33 152c0 21 2 115 2 135c0 212 -13 226 -28 241c-14 15 -28 17 -59 21c-5 0 -11 2 -11 8c0 10 10 10 20 10zM354 687c-2 -2 -12 -9 -16 -9
c-2 0 -7 3 -7 6c0 4 1 6 14 24l76 106c21 29 37 53 65 53c23 0 32 -19 32 -31c0 -18 -13 -35 -48 -61z" />
    <glyph glyph-name="Ucircumflex" unicode="&#xdb;" horiz-adv-x="760" 
d="M51 639h245c13 0 21 0 21 -8s-9 -9 -32 -13c-66 -10 -69 -89 -69 -242c0 -142 2 -208 21 -253c33 -80 122 -93 176 -93c87 0 171 27 189 134c10 60 13 163 13 275c0 96 -7 179 -91 180c-8 0 -19 1 -19 10c0 10 11 10 24 10h196c5 0 13 -1 13 -10c0 -3 -1 -6 -11 -8
c-68 -10 -82 -33 -82 -228c-1 -76 -2 -225 -30 -288c-27 -60 -105 -114 -241 -114c-38 0 -160 6 -214 81c-25 35 -33 72 -33 152c0 21 2 115 2 135c0 212 -13 226 -28 241c-14 15 -28 17 -59 21c-5 0 -11 2 -11 8c0 10 10 10 20 10zM373 878h54l89 -159c4 -8 12 -23 12 -25
c0 -4 -4 -8 -7 -8c-4 0 -7 2 -14 10l-106 110l-97 -100c-7 -7 -19 -20 -23 -20c-6 0 -8 5 -8 7c0 5 1 6 14 30z" />
    <glyph glyph-name="Udieresis" unicode="&#xdc;" horiz-adv-x="760" 
d="M51 639h245c13 0 21 0 21 -8s-9 -9 -32 -13c-66 -10 -69 -89 -69 -242c0 -142 2 -208 21 -253c33 -80 122 -93 176 -93c87 0 171 27 189 134c10 60 13 163 13 275c0 96 -7 179 -91 180c-8 0 -19 1 -19 10c0 10 11 10 24 10h196c5 0 13 -1 13 -10c0 -3 -1 -6 -11 -8
c-68 -10 -82 -33 -82 -228c-1 -76 -2 -225 -30 -288c-27 -60 -105 -114 -241 -114c-38 0 -160 6 -214 81c-25 35 -33 72 -33 152c0 21 2 115 2 135c0 212 -13 226 -28 241c-14 15 -28 17 -59 21c-5 0 -11 2 -11 8c0 10 10 10 20 10zM308 788c24 0 45 -19 45 -45
s-21 -45 -45 -45s-45 19 -45 45s22 45 45 45zM493 788c23 0 45 -19 45 -45s-21 -45 -45 -45s-45 19 -45 45s21 45 45 45z" />
    <glyph glyph-name="Ugrave" unicode="&#xd9;" horiz-adv-x="760" 
d="M51 639h245c13 0 21 0 21 -8s-9 -9 -32 -13c-66 -10 -69 -89 -69 -242c0 -142 2 -208 21 -253c33 -80 122 -93 176 -93c87 0 171 27 189 134c10 60 13 163 13 275c0 96 -7 179 -91 180c-8 0 -19 1 -19 10c0 10 11 10 24 10h196c5 0 13 -1 13 -10c0 -3 -1 -6 -11 -8
c-68 -10 -82 -33 -82 -228c-1 -76 -2 -225 -30 -288c-27 -60 -105 -114 -241 -114c-38 0 -160 6 -214 81c-25 35 -33 72 -33 152c0 21 2 115 2 135c0 212 -13 226 -28 241c-14 15 -28 17 -59 21c-5 0 -11 2 -11 8c0 10 10 10 20 10zM427 687l-116 88c-35 26 -48 43 -48 61
c0 12 9 31 32 31c28 0 44 -24 65 -53l76 -106c12 -18 14 -20 14 -24c0 -3 -5 -6 -7 -6c-4 0 -14 7 -16 9z" />
    <glyph glyph-name="Yacute" unicode="&#xdd;" horiz-adv-x="708" 
d="M487 633h184c14 0 26 0 26 -10c0 -8 -7 -8 -12 -8c-66 0 -89 -30 -189 -165c-84 -113 -84 -114 -89 -129c-5 -18 -7 -95 -7 -107c0 -29 1 -139 8 -160c8 -23 34 -35 54 -37c32 -3 36 -4 36 -12c0 -10 -15 -10 -17 -10c-11 0 -42 3 -73 4c-30 1 -60 1 -71 1
c-7 0 -28 -2 -49 -3c-20 -1 -41 -2 -48 -2c-6 0 -18 1 -18 10c0 7 6 8 13 8c54 3 79 35 79 134c0 14 -4 111 -13 127c-31 55 -166 286 -226 326c-16 11 -24 12 -48 16c-3 0 -11 1 -11 8c0 9 8 9 33 9h227c8 0 17 0 17 -9c0 -7 -6 -8 -24 -10c-50 -6 -50 -32 -50 -36
c0 -19 21 -50 31 -64c41 -58 86 -122 128 -180c38 41 85 110 125 168c20 30 34 51 34 69c0 37 -52 44 -61 44s-17 0 -17 9s10 9 28 9zM308 687c-2 -2 -12 -9 -16 -9c-2 0 -7 3 -7 6c0 4 1 6 14 24l76 106c21 29 37 53 65 53c23 0 32 -19 32 -31c0 -18 -13 -35 -48 -61z" />
    <glyph glyph-name="Ydieresis" unicode="&#x178;" horiz-adv-x="708" 
d="M487 633h184c14 0 26 0 26 -10c0 -8 -7 -8 -12 -8c-66 0 -89 -30 -189 -165c-84 -113 -84 -114 -89 -129c-5 -18 -7 -95 -7 -107c0 -29 1 -139 8 -160c8 -23 34 -35 54 -37c32 -3 36 -4 36 -12c0 -10 -15 -10 -17 -10c-11 0 -42 3 -73 4c-30 1 -60 1 -71 1
c-7 0 -28 -2 -49 -3c-20 -1 -41 -2 -48 -2c-6 0 -18 1 -18 10c0 7 6 8 13 8c54 3 79 35 79 134c0 14 -4 111 -13 127c-31 55 -166 286 -226 326c-16 11 -24 12 -48 16c-3 0 -11 1 -11 8c0 9 8 9 33 9h227c8 0 17 0 17 -9c0 -7 -6 -8 -24 -10c-50 -6 -50 -32 -50 -36
c0 -19 21 -50 31 -64c41 -58 86 -122 128 -180c38 41 85 110 125 168c20 30 34 51 34 69c0 37 -52 44 -61 44s-17 0 -17 9s10 9 28 9zM262 788c24 0 45 -19 45 -45s-21 -45 -45 -45s-45 19 -45 45s22 45 45 45zM447 788c23 0 45 -19 45 -45s-21 -45 -45 -45s-45 19 -45 45
s21 45 45 45z" />
    <glyph glyph-name="Zcaron" unicode="&#x17d;" horiz-adv-x="635" 
d="M507 0h-433c-15 -1 -25 -2 -25 7c0 15 216 333 251 384c33 49 89 126 122 176c14 21 16 25 26 47c-78 4 -129 4 -135 4c-144 0 -167 -30 -236 -131c-1 -2 -6 -8 -10 -8c-5 0 -9 4 -9 9c0 4 33 109 38 124c4 9 12 35 18 35c3 0 65 -4 73 -5c42 -2 137 -2 184 -2
c52 0 112 0 177 5c2 1 14 2 17 2c2 0 5 -1 5 -6c0 -7 -3 -11 -12 -25c-77 -115 -134 -198 -214 -314c-9 -13 -129 -188 -179 -278c46 -1 77 -2 121 -2c64 0 184 0 250 81l54 66c2 1 4 2 7 2c7 0 8 -6 8 -9v-2c-23 -67 -25 -74 -48 -147l-4 -11c-17 -2 -25 -2 -46 -2z
M345 687h-54l-89 159c-4 8 -12 23 -12 25c0 4 4 8 7 8c4 0 7 -2 14 -10l106 -110l97 100c7 7 19 20 23 20c6 0 8 -5 8 -7c0 -5 -1 -6 -14 -30z" />
    <glyph glyph-name="aacute" unicode="&#xe1;" horiz-adv-x="438" 
d="M285 62h-2c-16 -23 -51 -69 -130 -69c-77 0 -106 49 -106 96c0 54 32 97 97 119c119 40 144 48 144 99c0 72 -39 91 -78 91c-57 0 -64 -34 -71 -68c-1 -7 -9 -45 -39 -45c-2 0 -36 5 -36 43c0 34 36 90 152 90c53 0 93 -11 120 -36c17 -15 20 -37 20 -95
c0 -21 -3 -113 -3 -132c0 -117 18 -135 42 -135c4 0 19 2 22 2c8 0 11 -4 11 -8c0 -18 -79 -18 -96 -18c-46 0 -47 24 -47 66zM284 253c-19 -22 -26 -26 -90 -59c-20 -10 -73 -42 -73 -96c0 -40 27 -74 65 -74c18 0 40 6 59 22c38 32 42 75 42 119c0 37 -1 68 -3 88z
M173 464c-2 -2 -12 -9 -16 -9c-2 0 -7 3 -7 6c0 4 1 6 14 24l76 106c21 29 37 53 65 53c23 0 32 -19 32 -31c0 -18 -13 -35 -48 -61z" />
    <glyph glyph-name="acircumflex" unicode="&#xe2;" horiz-adv-x="438" 
d="M285 62h-2c-16 -23 -51 -69 -130 -69c-77 0 -106 49 -106 96c0 54 32 97 97 119c119 40 144 48 144 99c0 72 -39 91 -78 91c-57 0 -64 -34 -71 -68c-1 -7 -9 -45 -39 -45c-2 0 -36 5 -36 43c0 34 36 90 152 90c53 0 93 -11 120 -36c17 -15 20 -37 20 -95
c0 -21 -3 -113 -3 -132c0 -117 18 -135 42 -135c4 0 19 2 22 2c8 0 11 -4 11 -8c0 -18 -79 -18 -96 -18c-46 0 -47 24 -47 66zM284 253c-19 -22 -26 -26 -90 -59c-20 -10 -73 -42 -73 -96c0 -40 27 -74 65 -74c18 0 40 6 59 22c38 32 42 75 42 119c0 37 -1 68 -3 88z
M192 655h54l89 -159c4 -8 12 -23 12 -25c0 -4 -4 -8 -7 -8c-4 0 -7 2 -14 10l-106 110l-97 -100c-7 -7 -19 -20 -23 -20c-6 0 -8 5 -8 7c0 5 1 6 14 30z" />
    <glyph glyph-name="adieresis" unicode="&#xe4;" horiz-adv-x="438" 
d="M285 62h-2c-16 -23 -51 -69 -130 -69c-77 0 -106 49 -106 96c0 54 32 97 97 119c119 40 144 48 144 99c0 72 -39 91 -78 91c-57 0 -64 -34 -71 -68c-1 -7 -9 -45 -39 -45c-2 0 -36 5 -36 43c0 34 36 90 152 90c53 0 93 -11 120 -36c17 -15 20 -37 20 -95
c0 -21 -3 -113 -3 -132c0 -117 18 -135 42 -135c4 0 19 2 22 2c8 0 11 -4 11 -8c0 -18 -79 -18 -96 -18c-46 0 -47 24 -47 66zM284 253c-19 -22 -26 -26 -90 -59c-20 -10 -73 -42 -73 -96c0 -40 27 -74 65 -74c18 0 40 6 59 22c38 32 42 75 42 119c0 37 -1 68 -3 88z
M127 565c24 0 45 -19 45 -45s-21 -45 -45 -45s-45 19 -45 45s22 45 45 45zM312 565c23 0 45 -19 45 -45s-21 -45 -45 -45s-45 19 -45 45s21 45 45 45z" />
    <glyph glyph-name="agrave" unicode="&#xe0;" horiz-adv-x="438" 
d="M285 62h-2c-16 -23 -51 -69 -130 -69c-77 0 -106 49 -106 96c0 54 32 97 97 119c119 40 144 48 144 99c0 72 -39 91 -78 91c-57 0 -64 -34 -71 -68c-1 -7 -9 -45 -39 -45c-2 0 -36 5 -36 43c0 34 36 90 152 90c53 0 93 -11 120 -36c17 -15 20 -37 20 -95
c0 -21 -3 -113 -3 -132c0 -117 18 -135 42 -135c4 0 19 2 22 2c8 0 11 -4 11 -8c0 -18 -79 -18 -96 -18c-46 0 -47 24 -47 66zM284 253c-19 -22 -26 -26 -90 -59c-20 -10 -73 -42 -73 -96c0 -40 27 -74 65 -74c18 0 40 6 59 22c38 32 42 75 42 119c0 37 -1 68 -3 88z
M266 464l-116 88c-35 26 -48 43 -48 61c0 12 9 31 32 31c28 0 44 -24 65 -53l76 -106c12 -18 14 -20 14 -24c0 -3 -5 -6 -7 -6c-4 0 -14 7 -16 9z" />
    <glyph glyph-name="aring" unicode="&#xe5;" horiz-adv-x="438" 
d="M285 62h-2c-16 -23 -51 -69 -130 -69c-77 0 -106 49 -106 96c0 54 32 97 97 119c119 40 144 48 144 99c0 72 -39 91 -78 91c-57 0 -64 -34 -71 -68c-1 -7 -9 -45 -39 -45c-2 0 -36 5 -36 43c0 34 36 90 152 90c53 0 93 -11 120 -36c17 -15 20 -37 20 -95
c0 -21 -3 -113 -3 -132c0 -117 18 -135 42 -135c4 0 19 2 22 2c8 0 11 -4 11 -8c0 -18 -79 -18 -96 -18c-46 0 -47 24 -47 66zM284 253c-19 -22 -26 -26 -90 -59c-20 -10 -73 -42 -73 -96c0 -40 27 -74 65 -74c18 0 40 6 59 22c38 32 42 75 42 119c0 37 -1 68 -3 88z
M219 630c44 0 79 -36 79 -79s-35 -79 -79 -79c-43 0 -78 36 -78 79c0 44 35 79 78 79zM219 600c-26 0 -48 -22 -48 -49s23 -49 48 -49c27 0 49 23 49 49s-21 49 -49 49z" />
    <glyph glyph-name="atilde" unicode="&#xe3;" horiz-adv-x="438" 
d="M285 62h-2c-16 -23 -51 -69 -130 -69c-77 0 -106 49 -106 96c0 54 32 97 97 119c119 40 144 48 144 99c0 72 -39 91 -78 91c-57 0 -64 -34 -71 -68c-1 -7 -9 -45 -39 -45c-2 0 -36 5 -36 43c0 34 36 90 152 90c53 0 93 -11 120 -36c17 -15 20 -37 20 -95
c0 -21 -3 -113 -3 -132c0 -117 18 -135 42 -135c4 0 19 2 22 2c8 0 11 -4 11 -8c0 -18 -79 -18 -96 -18c-46 0 -47 24 -47 66zM284 253c-19 -22 -26 -26 -90 -59c-20 -10 -73 -42 -73 -96c0 -40 27 -74 65 -74c18 0 40 6 59 22c38 32 42 75 42 119c0 37 -1 68 -3 88z
M168 572c13 0 27 -2 59 -22c31 -20 46 -23 59 -23c23 0 40 15 43 37c1 6 1 7 16 7c6 0 7 -1 7 -9c0 -42 -25 -100 -81 -100c-24 0 -29 3 -81 35c-11 7 -21 12 -36 12c-23 0 -42 -16 -45 -35c-1 -10 -1 -12 -12 -12c-7 0 -10 1 -10 8s8 102 81 102z" />
    <glyph glyph-name="eacute" unicode="&#xe9;" horiz-adv-x="427" 
d="M116 228c-2 -17 -2 -31 -2 -40c0 -89 59 -164 142 -164c42 0 81 21 108 46c13 12 15 14 19 14c8 0 8 -11 8 -13c-28 -50 -93 -81 -162 -81c-107 0 -195 82 -195 206c0 140 111 224 195 224c83 0 172 -74 172 -168c0 -18 -3 -20 -39 -20c-39 0 -211 -4 -246 -4zM116 253
c36 -1 86 -3 122 -3c48 0 86 3 86 50c0 54 -43 102 -93 102c-17 0 -95 -5 -115 -149zM167 464c-2 -2 -12 -9 -16 -9c-2 0 -7 3 -7 6c0 4 1 6 14 24l76 106c21 29 37 53 65 53c23 0 32 -19 32 -31c0 -18 -13 -35 -48 -61z" />
    <glyph glyph-name="ecircumflex" unicode="&#xea;" horiz-adv-x="427" 
d="M116 228c-2 -17 -2 -31 -2 -40c0 -89 59 -164 142 -164c42 0 81 21 108 46c13 12 15 14 19 14c8 0 8 -11 8 -13c-28 -50 -93 -81 -162 -81c-107 0 -195 82 -195 206c0 140 111 224 195 224c83 0 172 -74 172 -168c0 -18 -3 -20 -39 -20c-39 0 -211 -4 -246 -4zM116 253
c36 -1 86 -3 122 -3c48 0 86 3 86 50c0 54 -43 102 -93 102c-17 0 -95 -5 -115 -149zM186 655h54l89 -159c4 -8 12 -23 12 -25c0 -4 -4 -8 -7 -8c-4 0 -7 2 -14 10l-106 110l-97 -100c-7 -7 -19 -20 -23 -20c-6 0 -8 5 -8 7c0 5 1 6 14 30z" />
    <glyph glyph-name="edieresis" unicode="&#xeb;" horiz-adv-x="427" 
d="M116 228c-2 -17 -2 -31 -2 -40c0 -89 59 -164 142 -164c42 0 81 21 108 46c13 12 15 14 19 14c8 0 8 -11 8 -13c-28 -50 -93 -81 -162 -81c-107 0 -195 82 -195 206c0 140 111 224 195 224c83 0 172 -74 172 -168c0 -18 -3 -20 -39 -20c-39 0 -211 -4 -246 -4zM116 253
c36 -1 86 -3 122 -3c48 0 86 3 86 50c0 54 -43 102 -93 102c-17 0 -95 -5 -115 -149zM121 565c24 0 45 -19 45 -45s-21 -45 -45 -45s-45 19 -45 45s22 45 45 45zM306 565c23 0 45 -19 45 -45s-21 -45 -45 -45s-45 19 -45 45s21 45 45 45z" />
    <glyph glyph-name="egrave" unicode="&#xe8;" horiz-adv-x="427" 
d="M116 228c-2 -17 -2 -31 -2 -40c0 -89 59 -164 142 -164c42 0 81 21 108 46c13 12 15 14 19 14c8 0 8 -11 8 -13c-28 -50 -93 -81 -162 -81c-107 0 -195 82 -195 206c0 140 111 224 195 224c83 0 172 -74 172 -168c0 -18 -3 -20 -39 -20c-39 0 -211 -4 -246 -4zM116 253
c36 -1 86 -3 122 -3c48 0 86 3 86 50c0 54 -43 102 -93 102c-17 0 -95 -5 -115 -149zM260 464l-116 88c-35 26 -48 43 -48 61c0 12 9 31 32 31c28 0 44 -24 65 -53l76 -106c12 -18 14 -20 14 -24c0 -3 -5 -6 -7 -6c-4 0 -14 7 -16 9z" />
    <glyph glyph-name="iacute" unicode="&#xed;" horiz-adv-x="260" 
d="M165 420l-1 -110c-1 -78 1 -163 1 -241c0 -29 3 -51 46 -53c16 -1 27 -2 27 -11c0 -4 -3 -8 -11 -8c-15 0 -80 6 -93 6c-15 0 -83 -4 -96 -4c-5 0 -12 0 -12 9c0 8 4 9 43 14c23 3 27 18 27 57c0 32 3 176 3 206c0 87 -5 98 -43 106c-5 1 -23 3 -26 5c-2 1 -3 5 -3 6
c0 7 8 9 15 9c37 3 92 7 123 9zM84 464c-2 -2 -12 -9 -16 -9c-2 0 -7 3 -7 6c0 4 1 6 14 24l76 106c21 29 37 53 65 53c23 0 32 -19 32 -31c0 -18 -13 -35 -48 -61z" />
    <glyph glyph-name="icircumflex" unicode="&#xee;" horiz-adv-x="260" 
d="M165 420l-1 -110c-1 -78 1 -163 1 -241c0 -29 3 -51 46 -53c16 -1 27 -2 27 -11c0 -4 -3 -8 -11 -8c-15 0 -80 6 -93 6c-15 0 -83 -4 -96 -4c-5 0 -12 0 -12 9c0 8 4 9 43 14c23 3 27 18 27 57c0 32 3 176 3 206c0 87 -5 98 -43 106c-5 1 -23 3 -26 5c-2 1 -3 5 -3 6
c0 7 8 9 15 9c37 3 92 7 123 9zM103 655h54l89 -159c4 -8 12 -23 12 -25c0 -4 -4 -8 -7 -8c-4 0 -7 2 -14 10l-106 110l-97 -100c-7 -7 -19 -20 -23 -20c-6 0 -8 5 -8 7c0 5 1 6 14 30z" />
    <glyph glyph-name="idieresis" unicode="&#xef;" horiz-adv-x="260" 
d="M165 420l-1 -110c-1 -78 1 -163 1 -241c0 -29 3 -51 46 -53c16 -1 27 -2 27 -11c0 -4 -3 -8 -11 -8c-15 0 -80 6 -93 6c-15 0 -83 -4 -96 -4c-5 0 -12 0 -12 9c0 8 4 9 43 14c23 3 27 18 27 57c0 32 3 176 3 206c0 87 -5 98 -43 106c-5 1 -23 3 -26 5c-2 1 -3 5 -3 6
c0 7 8 9 15 9c37 3 92 7 123 9zM38 565c24 0 45 -19 45 -45s-21 -45 -45 -45s-45 19 -45 45s22 45 45 45zM223 565c23 0 45 -19 45 -45s-21 -45 -45 -45s-45 19 -45 45s21 45 45 45z" />
    <glyph glyph-name="igrave" unicode="&#xec;" horiz-adv-x="260" 
d="M165 420l-1 -110c-1 -78 1 -163 1 -241c0 -29 3 -51 46 -53c16 -1 27 -2 27 -11c0 -4 -3 -8 -11 -8c-15 0 -80 6 -93 6c-15 0 -83 -4 -96 -4c-5 0 -12 0 -12 9c0 8 4 9 43 14c23 3 27 18 27 57c0 32 3 176 3 206c0 87 -5 98 -43 106c-5 1 -23 3 -26 5c-2 1 -3 5 -3 6
c0 7 8 9 15 9c37 3 92 7 123 9zM177 464l-116 88c-35 26 -48 43 -48 61c0 12 9 31 32 31c28 0 44 -24 65 -53l76 -106c12 -18 14 -20 14 -24c0 -3 -5 -6 -7 -6c-4 0 -14 7 -16 9z" />
    <glyph glyph-name="ntilde" unicode="&#xf1;" horiz-adv-x="531" 
d="M280 386c-41 0 -84 -37 -103 -84s-26 -82 -26 -128c0 -71 -6 -95 3 -124c8 -26 24 -33 47 -36c8 -1 11 -3 11 -10c0 -5 -5 -6 -10 -6c-19 0 -100 2 -116 2c-8 0 -44 -1 -52 0c-5 0 -9 2 -9 7c0 9 4 9 36 16c22 5 25 30 26 41c4 48 5 133 5 199c0 70 0 119 -37 131
c-24 8 -27 9 -27 14c0 9 11 9 15 9c36 0 71 0 106 1c10 -29 10 -36 13 -97h2c33 53 77 96 143 96c126 0 131 -98 131 -169c0 -19 -2 -106 -2 -124c0 -74 0 -75 3 -84s23 -21 39 -23c8 -1 14 -4 14 -8c0 -9 -9 -9 -25 -9c-22 0 -42 5 -64 5s-50 -5 -71 -5c-13 0 -21 0 -21 8
c0 6 4 8 11 9c36 5 43 19 45 27c4 15 5 79 5 126c0 100 6 216 -92 216zM214 572c13 0 27 -2 59 -22c31 -20 46 -23 59 -23c23 0 40 15 43 37c1 6 1 7 16 7c6 0 7 -1 7 -9c0 -42 -25 -100 -81 -100c-24 0 -29 3 -81 35c-11 7 -21 12 -36 12c-23 0 -42 -16 -45 -35
c-1 -10 -1 -12 -12 -12c-7 0 -10 1 -10 8s8 102 81 102z" />
    <glyph glyph-name="oacute" unicode="&#xf3;" horiz-adv-x="490" 
d="M34 204c0 105 86 217 215 217c110 0 207 -86 207 -205c0 -116 -97 -223 -215 -223c-110 0 -207 90 -207 211zM111 207c0 -107 57 -194 136 -194c81 0 132 93 132 189c0 87 -45 199 -138 199c-76 0 -130 -82 -130 -194zM199 464c-2 -2 -12 -9 -16 -9c-2 0 -7 3 -7 6
c0 4 1 6 14 24l76 106c21 29 37 53 65 53c23 0 32 -19 32 -31c0 -18 -13 -35 -48 -61z" />
    <glyph glyph-name="ocircumflex" unicode="&#xf4;" horiz-adv-x="490" 
d="M34 204c0 105 86 217 215 217c110 0 207 -86 207 -205c0 -116 -97 -223 -215 -223c-110 0 -207 90 -207 211zM111 207c0 -107 57 -194 136 -194c81 0 132 93 132 189c0 87 -45 199 -138 199c-76 0 -130 -82 -130 -194zM218 655h54l89 -159c4 -8 12 -23 12 -25
c0 -4 -4 -8 -7 -8c-4 0 -7 2 -14 10l-106 110l-97 -100c-7 -7 -19 -20 -23 -20c-6 0 -8 5 -8 7c0 5 1 6 14 30z" />
    <glyph glyph-name="odieresis" unicode="&#xf6;" horiz-adv-x="490" 
d="M34 204c0 105 86 217 215 217c110 0 207 -86 207 -205c0 -116 -97 -223 -215 -223c-110 0 -207 90 -207 211zM111 207c0 -107 57 -194 136 -194c81 0 132 93 132 189c0 87 -45 199 -138 199c-76 0 -130 -82 -130 -194zM153 565c24 0 45 -19 45 -45s-21 -45 -45 -45
s-45 19 -45 45s22 45 45 45zM338 565c23 0 45 -19 45 -45s-21 -45 -45 -45s-45 19 -45 45s21 45 45 45z" />
    <glyph glyph-name="ograve" unicode="&#xf2;" horiz-adv-x="490" 
d="M34 204c0 105 86 217 215 217c110 0 207 -86 207 -205c0 -116 -97 -223 -215 -223c-110 0 -207 90 -207 211zM111 207c0 -107 57 -194 136 -194c81 0 132 93 132 189c0 87 -45 199 -138 199c-76 0 -130 -82 -130 -194zM292 464l-116 88c-35 26 -48 43 -48 61
c0 12 9 31 32 31c28 0 44 -24 65 -53l76 -106c12 -18 14 -20 14 -24c0 -3 -5 -6 -7 -6c-4 0 -14 7 -16 9z" />
    <glyph glyph-name="otilde" unicode="&#xf5;" horiz-adv-x="490" 
d="M34 204c0 105 86 217 215 217c110 0 207 -86 207 -205c0 -116 -97 -223 -215 -223c-110 0 -207 90 -207 211zM111 207c0 -107 57 -194 136 -194c81 0 132 93 132 189c0 87 -45 199 -138 199c-76 0 -130 -82 -130 -194zM194 572c13 0 27 -2 59 -22c31 -20 46 -23 59 -23
c23 0 40 15 43 37c1 6 1 7 16 7c6 0 7 -1 7 -9c0 -42 -25 -100 -81 -100c-24 0 -29 3 -81 35c-11 7 -21 12 -36 12c-23 0 -42 -16 -45 -35c-1 -10 -1 -12 -12 -12c-7 0 -10 1 -10 8s8 102 81 102z" />
    <glyph glyph-name="scaron" unicode="&#x161;" horiz-adv-x="396" 
d="M348 129c0 -88 -78 -138 -143 -138c-33 0 -45 6 -101 32c-2 1 -6 2 -10 2c-8 0 -10 -3 -19 -18c-3 -4 -7 -6 -11 -6c-6 0 -6 5 -7 11c-1 14 -4 108 -4 126c0 5 2 13 10 13c4 0 5 -2 10 -13c18 -44 54 -130 132 -130c31 0 84 20 84 76c0 51 -69 84 -93 95
c-90 40 -132 59 -132 126c0 69 60 118 131 118c36 0 59 -11 69 -15c3 -2 28 -14 32 -14c5 0 6 2 15 13c1 2 3 3 5 3c9 0 9 -10 10 -18c4 -46 5 -86 5 -94c0 -6 0 -15 -8 -15c-6 0 -9 6 -12 14c-6 22 -37 78 -51 89c-17 12 -39 19 -61 19c-41 0 -79 -22 -79 -62
c0 -42 29 -55 119 -96c54 -24 109 -49 109 -118zM226 464h-54l-89 159c-4 8 -12 23 -12 25c0 4 4 8 7 8c4 0 7 -2 14 -10l106 -110l97 100c7 7 19 20 23 20c6 0 8 -5 8 -7c0 -5 -1 -6 -14 -30z" />
    <glyph glyph-name="uacute" unicode="&#xfa;" horiz-adv-x="510" 
d="M323 410h98c5 -59 4 -105 4 -160c0 -50 -6 -159 0 -188c6 -31 2 -37 27 -41c19 -3 22 -4 22 -11c0 -9 -9 -9 -25 -9h-77c-9 0 -20 0 -20 12c0 15 3 51 0 77c-27 -35 -77 -96 -160 -96c-23 0 -89 5 -101 85c-5 35 -9 218 -9 265c0 39 0 46 -25 48c-15 1 -19 2 -19 10
s6 8 23 8h90c3 -50 3 -271 10 -315c8 -49 48 -67 72 -67c30 0 84 28 105 76c13 29 17 90 17 142c0 91 14 144 -46 147c-3 0 -11 1 -11 8c0 9 6 9 25 9zM209 464c-2 -2 -12 -9 -16 -9c-2 0 -7 3 -7 6c0 4 1 6 14 24l76 106c21 29 37 53 65 53c23 0 32 -19 32 -31
c0 -18 -13 -35 -48 -61z" />
    <glyph glyph-name="ucircumflex" unicode="&#xfb;" horiz-adv-x="510" 
d="M323 410h98c5 -59 4 -105 4 -160c0 -50 -6 -159 0 -188c6 -31 2 -37 27 -41c19 -3 22 -4 22 -11c0 -9 -9 -9 -25 -9h-77c-9 0 -20 0 -20 12c0 15 3 51 0 77c-27 -35 -77 -96 -160 -96c-23 0 -89 5 -101 85c-5 35 -9 218 -9 265c0 39 0 46 -25 48c-15 1 -19 2 -19 10
s6 8 23 8h90c3 -50 3 -271 10 -315c8 -49 48 -67 72 -67c30 0 84 28 105 76c13 29 17 90 17 142c0 91 14 144 -46 147c-3 0 -11 1 -11 8c0 9 6 9 25 9zM228 655h54l89 -159c4 -8 12 -23 12 -25c0 -4 -4 -8 -7 -8c-4 0 -7 2 -14 10l-106 110l-97 -100c-7 -7 -19 -20 -23 -20
c-6 0 -8 5 -8 7c0 5 1 6 14 30z" />
    <glyph glyph-name="udieresis" unicode="&#xfc;" horiz-adv-x="510" 
d="M323 410h98c5 -59 4 -105 4 -160c0 -50 -6 -159 0 -188c6 -31 2 -37 27 -41c19 -3 22 -4 22 -11c0 -9 -9 -9 -25 -9h-77c-9 0 -20 0 -20 12c0 15 3 51 0 77c-27 -35 -77 -96 -160 -96c-23 0 -89 5 -101 85c-5 35 -9 218 -9 265c0 39 0 46 -25 48c-15 1 -19 2 -19 10
s6 8 23 8h90c3 -50 3 -271 10 -315c8 -49 48 -67 72 -67c30 0 84 28 105 76c13 29 17 90 17 142c0 91 14 144 -46 147c-3 0 -11 1 -11 8c0 9 6 9 25 9zM163 565c24 0 45 -19 45 -45s-21 -45 -45 -45s-45 19 -45 45s22 45 45 45zM348 565c23 0 45 -19 45 -45s-21 -45 -45 -45
s-45 19 -45 45s21 45 45 45z" />
    <glyph glyph-name="ugrave" unicode="&#xf9;" horiz-adv-x="510" 
d="M323 410h98c5 -59 4 -105 4 -160c0 -50 -6 -159 0 -188c6 -31 2 -37 27 -41c19 -3 22 -4 22 -11c0 -9 -9 -9 -25 -9h-77c-9 0 -20 0 -20 12c0 15 3 51 0 77c-27 -35 -77 -96 -160 -96c-23 0 -89 5 -101 85c-5 35 -9 218 -9 265c0 39 0 46 -25 48c-15 1 -19 2 -19 10
s6 8 23 8h90c3 -50 3 -271 10 -315c8 -49 48 -67 72 -67c30 0 84 28 105 76c13 29 17 90 17 142c0 91 14 144 -46 147c-3 0 -11 1 -11 8c0 9 6 9 25 9zM302 464l-116 88c-35 26 -48 43 -48 61c0 12 9 31 32 31c28 0 44 -24 65 -53l76 -106c12 -18 14 -20 14 -24
c0 -3 -5 -6 -7 -6c-4 0 -14 7 -16 9z" />
    <glyph glyph-name="yacute" unicode="&#xfd;" 
d="M43 415h11c12 -2 46 -2 78 -2c38 0 70 2 96 3c4 0 12 -2 12 -9s-3 -8 -32 -16c-15 -4 -28 -18 -28 -34c0 -23 26 -84 111 -285c46 125 64 178 77 225c2 10 7 31 7 55c0 25 -15 41 -51 45c-9 0 -14 2 -14 9c0 6 4 8 11 8c9 0 61 -1 70 -1c15 0 74 2 88 2c6 0 12 -2 12 -8
c0 -8 -6 -9 -17 -12c-42 -9 -59 -55 -90 -138c-19 -50 -96 -273 -114 -318c-31 -78 -80 -204 -179 -204c-53 0 -82 38 -82 67c0 26 26 46 45 46c38 0 42 -26 44 -46c2 -13 10 -20 24 -20c57 0 121 150 121 188c0 36 -27 101 -83 236c-53 128 -81 186 -107 190
c-17 3 -23 3 -23 10c0 5 4 9 13 9zM204 464c-2 -2 -12 -9 -16 -9c-2 0 -7 3 -7 6c0 4 1 6 14 24l76 106c21 29 37 53 65 53c23 0 32 -19 32 -31c0 -18 -13 -35 -48 -61z" />
    <glyph glyph-name="ydieresis" unicode="&#xff;" 
d="M43 415h11c12 -2 46 -2 78 -2c38 0 70 2 96 3c4 0 12 -2 12 -9s-3 -8 -32 -16c-15 -4 -28 -18 -28 -34c0 -23 26 -84 111 -285c46 125 64 178 77 225c2 10 7 31 7 55c0 25 -15 41 -51 45c-9 0 -14 2 -14 9c0 6 4 8 11 8c9 0 61 -1 70 -1c15 0 74 2 88 2c6 0 12 -2 12 -8
c0 -8 -6 -9 -17 -12c-42 -9 -59 -55 -90 -138c-19 -50 -96 -273 -114 -318c-31 -78 -80 -204 -179 -204c-53 0 -82 38 -82 67c0 26 26 46 45 46c38 0 42 -26 44 -46c2 -13 10 -20 24 -20c57 0 121 150 121 188c0 36 -27 101 -83 236c-53 128 -81 186 -107 190
c-17 3 -23 3 -23 10c0 5 4 9 13 9zM158 565c24 0 45 -19 45 -45s-21 -45 -45 -45s-45 19 -45 45s22 45 45 45zM343 565c23 0 45 -19 45 -45s-21 -45 -45 -45s-45 19 -45 45s21 45 45 45z" />
    <glyph glyph-name="zcaron" unicode="&#x17e;" horiz-adv-x="448" 
d="M294 415l63 -2c12 0 18 -2 18 -9c0 -5 -1 -8 -7 -18c-53 -88 -144 -227 -199 -314c-14 -22 -18 -33 -28 -53l105 -1c46 0 59 9 82 31c12 11 56 80 67 80c5 0 8 -4 8 -8c0 -3 -25 -109 -28 -121c-80 -1 -160 0 -240 1c-11 0 -61 -2 -71 -2c-8 0 -15 4 -15 10
c0 14 99 164 106 174c40 57 47 70 114 187c3 5 10 14 14 22c-13 1 -38 2 -52 2c-67 0 -98 -8 -134 -51c-7 -8 -31 -49 -40 -49c-3 0 -8 1 -8 8c0 0 8 27 9 29c6 20 12 44 22 80c26 2 40 3 82 3c44 0 116 0 132 1zM252 464h-54l-89 159c-4 8 -12 23 -12 25c0 4 4 8 7 8
c4 0 7 -2 14 -10l106 -110l97 100c7 7 19 20 23 20c6 0 8 -5 8 -7c0 -5 -1 -6 -14 -30z" />
    </font>
</defs>
</svg>
